<?xml version="1.0" encoding="UTF-8"?>
<svg id="Layer_2" data-name="Layer 2" xmlns="http://www.w3.org/2000/svg" viewBox="0 0 16.99 20.18">
  <defs>
    <style>
      .cls-1 {
        fill: #fff;
        stroke-width: 0px;
      }
    </style>
  </defs>
  <g id="OBJECTS">
    <g>
      <path class="cls-1" d="M7.57,11.65c0,.08-.02.14-.06.21-.04.06-.09.11-.16.14-.06.03-.16.04-.3.04h-.18s.04-.04.04-.05c0-.02,0-.05,0-.1v-.45s0-.07,0-.08c0-.03-.02-.05-.05-.06h.11s.05,0,.08,0,.05,0,.09,0c.12,0,.22.03.3.09.08.07.13.16.13.28M7.45,11.66c0-.09-.03-.16-.08-.22-.05-.06-.13-.09-.23-.09-.03,0-.07,0-.11.01v.57s.06,0,.08,0c.1,0,.17-.02.22-.06.07-.06.11-.13.11-.23"/>
      <path class="cls-1" d="M8.47,11.96l-.05.07c-.05,0-.09-.01-.11-.03-.02-.01-.03-.03-.04-.05,0-.01,0-.04,0-.07v-.15s-.07.03-.15.04c-.06.01-.08.04-.08.09,0,.03.01.05.03.07.02.02.05.03.09.03.02,0,.05,0,.08-.02l-.07.09s-.04,0-.06,0c-.06,0-.1-.01-.14-.04-.04-.03-.06-.08-.06-.13,0-.05.02-.09.06-.11.03-.02.08-.03.15-.04.05,0,.08-.02.1-.03.02-.01.03-.03.03-.05s-.01-.04-.03-.05c-.02-.01-.05-.02-.08-.02-.04,0-.09.02-.16.05l.08-.11s.05,0,.08,0c.1,0,.16.03.19.08.02.02.02.07.02.14v.15s0,.05,0,.06c0,.02.02.03.03.04.01,0,.03.01.06.01"/>
      <path class="cls-1" d="M8.98,12.03h-.19s.03-.03.04-.04c0-.01,0-.04,0-.07v-.3s0-.06,0-.07c0-.01-.02-.02-.04-.04h.08s.05,0,.07-.02v.44s0,.06,0,.07c0,.01.02.02.04.04M8.96,11.36s0,.04-.02.05c-.01.01-.03.02-.05.02-.02,0-.04,0-.05-.02-.01-.01-.02-.03-.02-.05s0-.04.02-.05c.01-.01.03-.02.05-.02s.03,0,.05.02c.01.01.02.03.02.05"/>
      <path class="cls-1" d="M9.52,12.03h-.19s.03-.03.04-.04,0-.04,0-.07v-.53s0-.06,0-.07-.02-.02-.04-.04h.08s.05,0,.07-.02v.66s0,.06,0,.07.02.03.04.04"/>
      <path class="cls-1" d="M10.44,11.5l-.24.58c-.03.06-.06.1-.09.13-.04.03-.09.05-.16.05-.04,0-.08-.01-.14-.03l.1-.07s.04.02.06.02c.06,0,.1-.04.13-.13v-.03s-.03-.05-.05-.08l-.15-.33s-.03-.05-.04-.07c-.01-.01-.03-.03-.05-.03h.11s.03,0,.03,0c0,0,.01.01.02.04l.17.39.12-.3s.02-.05.02-.07c0-.02-.01-.04-.03-.05h.16Z"/>
      <path class="cls-1" d="M12.34,11.28l-.24.78s-.02-.01-.04-.03c-.04-.02-.06-.04-.07-.06-.01-.01-.02-.04-.04-.09l-.13-.41-.18.58s-.03-.02-.05-.04c-.03-.02-.05-.04-.06-.05,0-.01-.02-.04-.03-.08l-.14-.45c-.02-.05-.03-.09-.04-.11-.01-.02-.03-.04-.05-.05h.17s0,.01,0,.01c0,.01,0,.03.01.05l.18.55.14-.45s.02-.07.02-.1c0-.03-.02-.05-.05-.07h.16s0,.02,0,.02c0,.02,0,.05.02.08l.17.52.14-.44s.02-.08.02-.1c0-.04-.02-.06-.06-.08h.17Z"/>
      <path class="cls-1" d="M13.26,11.76c0,.08-.03.15-.09.2-.06.05-.13.08-.22.08s-.15-.03-.21-.08c-.06-.05-.08-.12-.08-.2,0-.09.04-.16.11-.22.05-.04.12-.06.2-.06s.14.02.2.07c.06.05.09.12.09.2M13.14,11.78c0-.06-.02-.12-.05-.16-.03-.04-.08-.06-.14-.06-.05,0-.09.02-.13.05-.03.04-.05.08-.05.14,0,.06.02.11.05.15.04.04.08.06.13.06s.1-.02.13-.05c.03-.03.05-.08.05-.14"/>
      <path class="cls-1" d="M13.94,11.6s-.03-.02-.05-.02c-.04,0-.08.02-.1.05-.02.02-.02.06-.02.1v.19s0,.06,0,.07c0,.01.02.02.04.04h-.19s.03-.03.04-.04c0-.01,0-.04,0-.07v-.3s0-.06,0-.07c0-.01-.02-.02-.04-.04h.08s.05,0,.07-.02v.09c.03-.06.08-.09.14-.09,0,0,.02,0,.04,0v.11Z"/>
      <path class="cls-1" d="M14.45,12.03h-.19s.03-.03.04-.04c0-.01,0-.04,0-.07v-.53s0-.06,0-.07c0-.01-.02-.02-.04-.04h.08s.05,0,.07-.02v.66s0,.06,0,.07c0,.01.02.03.04.04"/>
      <path class="cls-1" d="M15.4,12.03h-.15v-.26s0-.06,0-.08c0-.03-.01-.05-.03-.07-.03-.04-.08-.06-.13-.06-.05,0-.09.02-.12.05-.03.04-.05.08-.05.13,0,.06.02.11.06.15s.08.06.14.06c.03,0,.07-.01.1-.03l-.07.1s-.04,0-.06,0c-.07,0-.13-.02-.17-.05-.08-.05-.12-.13-.12-.23,0-.08.03-.14.08-.2.05-.05.12-.08.19-.08.07,0,.13.02.18.07v-.16s0-.06,0-.07c0-.01-.02-.02-.04-.04h.08s.05,0,.07-.02v.66s0,.06,0,.07c0,.01.02.03.04.04"/>
      <path class="cls-1" d="M4.42,11.28c-.13.12-.27.18-.43.18-.23,0-.6-.2-1.09-.59-.12.02-.21.03-.28.03-.34,0-.63-.11-.86-.34s-.35-.5-.35-.83.12-.61.37-.84c.24-.23.55-.34.91-.34s.64.11.87.33c.23.22.35.49.35.82,0,.15-.03.3-.09.45-.06.15-.15.28-.25.38-.06.06-.15.12-.26.18.41.38.77.57,1.08.57h.04ZM3.52,9.76c0-.26-.08-.49-.24-.68-.16-.19-.37-.29-.63-.29-.23,0-.43.07-.59.22-.18.16-.27.38-.27.65s.08.49.23.69c.15.2.37.3.64.3.25,0,.45-.08.61-.25.16-.17.24-.38.24-.64"/>
      <path class="cls-1" d="M5.81,10.84h-.42v-.22c-.08.1-.16.17-.23.21-.07.04-.16.06-.27.06-.23,0-.4-.08-.51-.24-.06-.1-.1-.24-.1-.43v-.61c0-.11,0-.18-.02-.21-.01-.03-.05-.07-.11-.12h.23c.1,0,.16-.02.2-.06v.95c0,.16.03.27.09.34.07.09.17.13.3.13.12,0,.21-.04.29-.11.07-.07.11-.17.11-.29v-.61c0-.11,0-.18-.02-.22-.01-.03-.05-.07-.11-.12h.24c.09,0,.16-.02.2-.06v1.3c0,.11,0,.18.02.21.01.03.05.07.11.12"/>
      <path class="cls-1" d="M7.67,10.64l-.15.22c-.15-.01-.26-.04-.32-.08-.06-.04-.1-.09-.11-.16-.01-.04-.02-.11-.02-.2v-.44c-.08.04-.22.08-.43.13-.16.04-.25.13-.25.26,0,.09.03.15.1.2.06.05.15.07.27.07.07,0,.16-.01.25-.04l-.2.25c-.06.01-.12.02-.19.02-.17,0-.3-.04-.4-.13-.12-.1-.17-.23-.17-.38,0-.16.06-.27.19-.34.09-.05.24-.09.45-.13.15-.03.25-.06.3-.09.05-.03.08-.08.08-.14s-.03-.12-.09-.16c-.06-.04-.14-.06-.24-.06-.12,0-.27.05-.46.14l.23-.34c.07-.01.15-.02.23-.02.29,0,.48.08.57.23.05.07.07.21.07.41v.44c0,.09,0,.15,0,.17.01.05.05.1.1.13.04.02.1.04.18.04"/>
      <path class="cls-1" d="M9.48,10.84h-.57c.06-.05.1-.09.11-.12s.02-.11.02-.21v-.54c0-.16-.02-.28-.07-.34-.08-.1-.19-.15-.34-.15-.07,0-.14.02-.2.05-.07.03-.11.08-.14.13-.02.03-.02.09-.02.16v.69c0,.11,0,.18.02.21.01.03.05.07.11.12h-.56c.06-.05.1-.09.11-.12.01-.03.02-.11.02-.21v-.9c0-.11,0-.18-.02-.21-.01-.03-.05-.07-.11-.12h.22c.09,0,.16-.02.2-.06v.28c.15-.18.32-.26.5-.26.12,0,.23.03.33.08.11.06.19.14.23.24.03.07.04.2.04.39v.58c0,.11,0,.18.02.21.01.03.05.07.11.12"/>
      <path class="cls-1" d="M10.69,10.62l-.18.24s-.08.02-.12.02c-.14,0-.25-.05-.35-.15-.06-.06-.1-.14-.11-.23,0-.05-.01-.13-.01-.26v-.75h-.23v-.12c.12-.02.21-.07.28-.15.08-.09.13-.23.13-.42v-.04h.13v.51h.26c.1,0,.17,0,.2-.02v.31s-.12-.06-.21-.06h-.25v.72c0,.16.02.27.06.32.06.08.15.12.26.12.05,0,.09,0,.14-.03"/>
      <path class="cls-1" d="M12.49,10.84h-.42v-.22c-.08.1-.16.17-.23.21-.07.04-.16.06-.27.06-.23,0-.4-.08-.51-.24-.06-.1-.1-.24-.1-.43v-.61c0-.11,0-.18-.02-.21-.01-.03-.05-.07-.11-.12h.23c.1,0,.16-.02.2-.06v.95c0,.16.03.27.08.34.07.09.17.13.3.13.12,0,.21-.04.29-.11.07-.07.11-.17.11-.29v-.61c0-.11,0-.18-.02-.22-.01-.03-.05-.07-.11-.12h.24c.09,0,.16-.02.2-.06v1.3c0,.11,0,.18.02.21.01.03.05.07.11.12"/>
      <path class="cls-1" d="M15.49,10.84h-.59c.06-.05.1-.09.11-.12.01-.03.02-.11.02-.22v-.53c0-.17-.03-.3-.09-.37-.07-.09-.17-.13-.3-.13-.16,0-.28.06-.34.19-.02.05-.04.13-.04.26v.58c0,.11,0,.18.02.21.01.03.05.07.11.12h-.57c.06-.05.1-.09.11-.12.01-.03.02-.11.02-.22v-.55c0-.16-.04-.28-.1-.35-.07-.07-.16-.11-.28-.11-.17,0-.28.06-.34.19-.02.05-.04.12-.04.22v.6c0,.11,0,.18.02.22.01.03.05.07.11.12h-.56c.06-.05.1-.09.11-.12.01-.03.02-.11.02-.21v-.9c0-.11,0-.18-.02-.21-.01-.03-.05-.07-.11-.12h.24c.08,0,.15-.02.18-.06v.29c.13-.18.3-.27.5-.27.22,0,.4.1.52.3.08-.11.16-.19.24-.23.08-.05.18-.07.29-.07.12,0,.23.02.33.07.11.05.19.13.23.24.03.07.05.19.05.36v.61c0,.1,0,.17.02.2.02.06.06.11.14.14"/>
      <path class="cls-1" d="M14.61,4.89c-.11-.23-.18-.45-.04-.72.31-.5.99-.59,1.53-.4.02,0,.05,0,.07,0,.06-.04.08-.26.08-.27,0-.1-.03-.21-.09-.31-.03-.04-.06-.07-.09-.1-.03-.03-.06-.06-.07-.09-.04-.07-.04-.17-.04-.27,0-.09,0-.18-.03-.26-.05-.16-.13-.28-.24-.37-.27-.21-.61-.11-.82.04-.05.04-.11.04-.18.05-.08,0-.16.02-.24.07-.33.24-.37.79-.37.95,0,.36.12.75.33,1.03-.04.14-.04.27-.02.39-.34-.37-.72-.71-1.12-1.01-.07-.05-.14-.1-.21-.15-.25-.18-.52-.34-.79-.48-.69-.37-1.42-.63-2.16-.79l-.26-.05c-.87-.15-1.76-.17-2.61-.02-.34.06-.67.14-.97.24,0,0-.01,0-.02,0-.71.1-1.45-.11-2.01-.31-.39-.14-.9-.34-1.33-.65-.44-.31-.75-.69-.91-1.11-.04-.1-.09-.23-.22-.28-.1-.03-.19,0-.26.03-.45.2-.8.64-.96,1.21-.06.19-.11.43-.16.7-.02.11-.03.22-.03.32,0,.17-.07.44-.13.6-.33.86-.27,1.81.17,2.52.23.37.57.66.95.84.06.03.13.06.19.08.41.15.85.19,1.25.07l.06-.02c.09-.03.17-.05.24-.04.09,0,.17.06.26.11.02.01.05.03.07.04.37.21.84.26,1.25.13.08-.03.18-.07.25-.15.14-.16.09-.39.06-.56-.05-.23-.07-.48-.07-.72,0-.29.03-.58.1-.87.09-.39.23-.74.43-1.06.2-.32.43-.51.83-.68,0,0,.02,0,.02,0,.3-.1.63-.19.97-.24,1.55-.25,3.18,0,4.64.71-.31-.04-.63-.04-.94.15-.49-.21-1.13-.26-1.67-.11-.24.07-1.06.34-1.28.93-.05.14-.04.27-.02.39.01.1.03.2,0,.29-.14.38-.17.93.25,1.25.17.13.39.21.65.22.14,0,.27-.02.41-.05.15-.03.3-.06.42-.04.05.01.11.04.16.08.06.03.12.07.19.09.17.05.34.06.49.01,0,0,.33-.11.37-.22.01-.03,0-.07-.01-.1-.48-.73-.62-1.78.02-2.44.38-.33.78-.28,1.2-.19.28.06.56.18.82.36.07.05.13.09.2.14.04.03.08.06.12.09,0,0,.01,0,.02.01,1.29,1,2.28,2.4,2.76,3.94.11,0,.19-.11.15-.21-.33-1-.87-1.93-1.57-2.73M16.11,3.49s-.01.09-.02.13c-.16-.05-.32-.08-.49-.08-.27,0-.55.06-.77.19.33-.29.83-.37,1.29-.29,0,.01,0,.03,0,.04M15.94,3.15s.02.02.03.03c.03.03.05.05.07.08.02.04.04.08.05.12-.54-.1-1.14,0-1.5.41.23-.46.84-.63,1.34-.64M15.83,2.88c-.1,0-.28.03-.45.12-.01,0-.02.02,0,.03,0,0,.01.01.02.01,0,0,0,0,.01,0,.16-.09.34-.11.44-.11,0,.04.02.09.04.13,0,0,0,.01,0,.02-.48,0-1.04.16-1.32.53.21-.45.78-.74,1.26-.86,0,.05,0,.1.01.15M15.59,2.2c.06.04.1.1.13.16-.09.03-.26.1-.4.23,0,0,0,.02,0,.03,0,0,.01,0,.02,0,0,0,.01,0,.02,0,.13-.12.3-.19.39-.22.02.04.03.07.04.11.01.04.02.09.02.13-.38.09-.84.28-1.14.58.12-.26.28-.51.49-.71.07-.07.27-.26.4-.33.01,0,.02.02.04.02M14.86,2.29s.05-.02.07-.04c.07-.05.15-.09.23-.11-.08.06-.18.14-.26.25,0,.01,0,.02,0,.03,0,0,0,0,.01,0,0,0,.01,0,.02,0,.11-.15.26-.25.34-.3.05,0,.11,0,.16.01-.14.07-.3.24-.38.31-.33.31-.54.71-.67,1.14.03-.46.22-.91.46-1.29M14.26,3.68c-.05-.15-.07-.31-.07-.46,0-.15.03-.65.32-.84.05-.03.1-.04.17-.05-.25.41-.42.88-.42,1.36M1.07.64c.18.07.52.23.79.51.01.01.03.01.05,0,.01,0,.01-.02.01-.03,0,0,0-.01,0-.01-.27-.28-.6-.44-.79-.52.13-.15.29-.27.46-.35.03-.01.08-.03.11-.02.04.01.07.09.09.15.17.46.51.87.98,1.21.32.23.68.4,1.01.53-1.03-.19-2.04-.56-2.93-1.08.06-.14.14-.27.23-.38M.55,2.28c0-.1.01-.2.03-.29,0-.03,0-.06.02-.08.16-.02.59-.06,1,.07.02,0,.04,0,.04-.02,0,0,0-.01,0-.02,0-.01-.01-.02-.02-.02-.41-.14-.83-.1-1-.08.04-.2.08-.37.12-.52.01-.05.03-.09.05-.14.97.58,2.09.98,3.22,1.16-1.15-.08-2.32-.03-3.45.08,0-.05,0-.09,0-.14M.3,3.28c.14-.08.52-.28.94-.31.02,0,.03-.02.03-.04,0,0,0,0,0,0,0-.02-.02-.03-.04-.03-.39.03-.73.19-.91.28.03-.12.07-.23.12-.34.03-.08.05-.15.07-.22,1.31-.14,2.67-.19,3.99-.05-1.48.16-2.96.58-4.29,1.21.01-.16.04-.33.08-.49M.58,5.3s-.01-.01-.02-.02c-.1-.16-.18-.33-.23-.52.07-.09.37-.46.8-.65.02,0,.02-.03.02-.04,0,0,0,0,0,0,0-.02-.03-.03-.05-.02-.4.18-.69.5-.8.64-.06-.22-.09-.45-.09-.68,1.39-.67,2.94-1.11,4.49-1.26-1.55.43-3.33,1.19-4.12,2.56M1.62,6.13c-.07-.02-.13-.05-.19-.08-.06-.03-.11-.06-.17-.09.04-.13.19-.56.52-.89,0,0,.01-.02,0-.03,0,0,0-.01,0-.02-.01-.01-.04-.01-.05,0-.32.33-.48.74-.53.9-.19-.12-.36-.27-.5-.45.74-1.28,2.35-2.03,3.81-2.46-1.23.7-2.2,1.86-2.71,3.18-.06-.02-.12-.03-.18-.06M3.09,6.12c-.12-.01-.23.02-.33.05l-.05.02s-.08.02-.13.03c.01-.14.06-.42.21-.68,0,0,0-.02,0-.03,0,0,0-.02-.02-.02-.02,0-.04,0-.05.01-.16.28-.21.58-.22.72-.18.03-.36.03-.54,0,.48-1.19,1.35-2.23,2.44-2.91-.7.75-1.11,1.84-1.29,2.81,0,0-.02,0-.03,0M4.09,6.47c-.13,0-.26-.03-.38-.08,0-.09-.02-.44.13-.76,0,0,0-.02,0-.02,0-.01-.01-.02-.02-.02-.02,0-.04,0-.05.02-.14.31-.14.63-.13.76-.05-.02-.09-.04-.13-.07-.02-.01-.05-.03-.07-.04-.05-.03-.1-.06-.16-.09.23-1.18.81-2.53,1.84-3.2-.86.85-1.1,2.31-1.03,3.5M4.79,4.27c-.13.55-.14,1.13-.03,1.68.01.07.03.15.03.23,0,.06-.01.12-.05.16-.04.04-.1.07-.16.09-.12.04-.25.06-.39.06-.04-1.15.22-2.51,1.03-3.32-.2.33-.35.7-.45,1.11M8.19,4.09c.19-.5.93-.74,1.15-.8.23-.06.48-.09.72-.08-.71.19-1.36.63-1.88,1.15-.01-.1-.02-.19,0-.28M8.17,5.58c-.04-.07-.07-.15-.08-.23.04-.14.13-.41.31-.63,0,0,0-.02,0-.03,0,0,0-.01-.01-.02-.01-.01-.04-.01-.05,0-.13.16-.22.34-.27.48,0-.14.03-.28.08-.39.02-.04.02-.08.03-.12.47-.52,1.09-.96,1.76-1.19-.59.36-1.1.83-1.45,1.44-.08.14-.27.45-.32.68M8.87,5.96c-.05,0-.11-.01-.18-.02.01-.15.05-.42.18-.67,0,0,0-.02,0-.03,0,0,0-.02-.02-.02-.02,0-.04,0-.05.01-.14.26-.18.53-.19.69-.1-.03-.2-.07-.28-.14-.02-.01-.03-.03-.05-.04.06-.22.26-.58.34-.72.23-.4.53-.73.88-1.01-.33.57-.45,1.32-.44,1.93-.07.01-.14.02-.21.02M9.73,5.87c-.07-.01-.14-.01-.2,0-.03-.14-.07-.42,0-.7,0,0,0-.01,0-.02,0-.01-.01-.02-.03-.02-.02,0-.04,0-.04.03-.07.29-.03.57,0,.72-.07,0-.15.02-.22.04,0-.77.21-1.73.81-2.22-.45.57-.46,1.46-.29,2.19,0,0-.02,0-.03,0M10.1,6.04s-.09-.04-.14-.07c-.02-.01-.04-.03-.06-.04-.18-.77-.15-1.75.45-2.26-.47.68-.4,1.62-.04,2.4-.07,0-.13-.01-.2-.03M10.67,5.96c-.07.03-.16.08-.19.09-.02,0-.04,0-.06.01-.3-.66-.37-1.43-.06-2.04-.12.39-.1.83,0,1.23.07.25.17.49.31.7"/>
      <path class="cls-1" d="M2.38,15.29c.11.23.18.45.04.72-.31.5-.99.59-1.53.4-.02,0-.05,0-.07,0-.06.04-.08.26-.08.27,0,.1.03.21.09.31.03.04.06.07.09.1.03.03.06.06.07.09.04.07.04.17.04.27,0,.09,0,.18.03.26.05.16.13.28.24.37.27.21.61.11.82-.04.05-.04.11-.04.18-.05.08,0,.16-.02.24-.07.33-.24.37-.79.37-.95,0-.36-.12-.75-.33-1.03.04-.14.04-.27.02-.39.34.37.72.71,1.12,1.01.07.05.14.1.21.15.25.18.52.34.79.48.69.37,1.42.63,2.16.79l.26.05c.87.15,1.76.17,2.61.02.34-.06.67-.14.97-.24,0,0,.01,0,.02,0,.71-.1,1.45.11,2.01.31.39.14.9.34,1.33.65.44.31.75.69.91,1.11.04.1.09.23.22.28.1.03.19,0,.26-.03.45-.2.8-.64.96-1.21.06-.19.11-.43.16-.7.02-.11.03-.22.03-.32,0-.17.07-.44.13-.6.33-.86.27-1.81-.17-2.52-.23-.37-.57-.66-.95-.84-.06-.03-.13-.06-.19-.08-.41-.15-.85-.19-1.25-.07l-.06.02c-.09.03-.17.05-.24.04-.09,0-.17-.06-.26-.11-.02-.01-.05-.03-.07-.04-.37-.21-.84-.26-1.25-.13-.08.03-.18.07-.25.15-.14.16-.09.39-.06.56.05.23.07.48.07.72,0,.29-.03.58-.1.87-.09.39-.23.74-.43,1.06-.2.32-.43.51-.83.68,0,0-.02,0-.02,0-.3.1-.63.19-.97.24-1.55.25-3.18,0-4.64-.71.31.04.63.04.94-.15.49.21,1.13.26,1.67.11.24-.07,1.06-.34,1.28-.93.05-.14.04-.27.02-.39-.01-.1-.03-.2,0-.29.14-.38.17-.93-.25-1.25-.17-.13-.39-.21-.65-.22-.14,0-.27.02-.41.05-.15.03-.3.06-.42.04-.05-.01-.11-.04-.16-.08-.06-.03-.12-.07-.19-.09-.17-.05-.34-.06-.49-.01,0,0-.33.11-.37.22-.01.03,0,.07.01.1.48.73.62,1.78-.02,2.44-.38.33-.78.28-1.2.19-.28-.06-.56-.18-.82-.36-.07-.05-.13-.09-.2-.14-.04-.03-.08-.06-.12-.09,0,0-.01,0-.02-.01-1.29-1-2.28-2.4-2.76-3.94-.11,0-.19.11-.15.21.33,1,.87,1.93,1.57,2.73M.89,16.69s.01-.09.02-.13c.16.05.32.08.49.08.27,0,.55-.06.77-.19-.33.29-.82.37-1.29.29,0-.01,0-.03,0-.04M1.05,17.04s-.02-.02-.03-.03c-.03-.03-.05-.05-.07-.08-.02-.04-.04-.08-.05-.12.54.1,1.14,0,1.5-.41-.23.46-.84.63-1.34.64M1.17,17.3c.1,0,.28-.03.45-.12.01,0,.02-.02,0-.03,0,0-.01-.01-.02-.01,0,0,0,0-.01,0-.16.09-.34.11-.44.11,0-.04-.02-.09-.04-.13,0,0,0-.01,0-.02.48,0,1.04-.16,1.32-.53-.21.45-.78.74-1.26.86,0-.05,0-.1-.01-.15M1.4,17.98c-.06-.04-.1-.1-.13-.16.09-.03.26-.1.4-.23,0,0,0-.02,0-.03,0,0-.01,0-.02,0,0,0-.01,0-.02,0-.13.12-.3.19-.39.22-.02-.04-.03-.07-.04-.11-.01-.04-.02-.09-.02-.13.38-.09.84-.28,1.14-.58-.12.26-.28.51-.49.71-.07.07-.27.26-.39.33-.01,0-.02-.02-.04-.02M2.13,17.9s-.05.02-.07.04c-.07.05-.15.09-.23.11.08-.06.18-.14.26-.25,0-.01,0-.02,0-.03,0,0,0,0-.01,0,0,0-.01,0-.02,0-.11.15-.26.25-.34.3-.05,0-.11,0-.16-.01.14-.07.3-.24.38-.31.33-.31.54-.71.67-1.14-.03.46-.22.91-.46,1.29M2.73,16.5c.05.15.07.31.07.46,0,.15-.03.65-.32.84-.05.03-.1.04-.17.05.25-.41.42-.88.42-1.36M15.93,19.55c-.18-.07-.52-.23-.79-.51-.01-.01-.03-.01-.05,0-.01,0-.01.02-.01.03,0,0,0,.01,0,.01.27.28.6.44.79.52-.13.15-.29.27-.46.35-.03.01-.08.03-.11.02-.04-.01-.07-.09-.09-.15-.17-.46-.51-.87-.98-1.21-.32-.23-.68-.4-1.01-.53,1.03.19,2.04.56,2.93,1.08-.06.14-.14.27-.23.38M16.44,17.91c0,.1-.01.2-.03.29,0,.03,0,.06-.02.08-.16.02-.59.06-1-.07-.02,0-.04,0-.04.02,0,0,0,.01,0,.02,0,.01.01.02.02.02.41.14.83.1,1,.08-.04.2-.08.37-.12.52-.01.05-.03.09-.05.14-.97-.58-2.09-.98-3.22-1.16,1.15.08,2.32.03,3.45-.08,0,.05,0,.09,0,.14M16.69,16.91c-.14.08-.52.28-.94.31-.02,0-.03.02-.03.04,0,0,0,0,0,0,0,.02.02.03.04.03.39-.03.73-.19.91-.28-.04.12-.08.23-.12.34-.03.08-.05.15-.07.22-1.31.14-2.67.19-3.99.05,1.48-.16,2.96-.58,4.29-1.21-.01.16-.04.33-.08.49M16.42,14.88s.01.01.02.02c.1.16.18.33.23.52-.07.09-.37.46-.8.65-.02,0-.02.03-.02.04,0,0,0,0,0,0,0,.02.03.03.05.02.4-.18.69-.5.8-.64.06.22.09.45.09.68-1.39.67-2.94,1.11-4.49,1.26,1.55-.43,3.33-1.19,4.12-2.56M15.37,14.05c.07.02.13.05.19.08.06.03.11.06.17.09-.04.13-.19.56-.52.89,0,0-.01.02,0,.03,0,0,0,.01,0,.02.01.01.04.01.05,0,.32-.33.48-.74.53-.9.19.12.36.27.5.45-.74,1.28-2.35,2.03-3.81,2.46,1.23-.7,2.2-1.86,2.71-3.18.06.02.12.03.18.06M13.9,14.07c.12.01.23-.02.33-.05l.05-.02s.08-.02.13-.03c-.01.14-.06.42-.21.68,0,0,0,.02,0,.03,0,0,0,.02.02.02.02,0,.04,0,.05-.01.16-.28.21-.58.22-.72.18-.03.36-.03.54,0-.48,1.19-1.35,2.23-2.44,2.91.7-.75,1.11-1.84,1.29-2.81,0,0,.02,0,.03,0M12.9,13.71c.13,0,.26.03.38.08,0,.09.02.44-.13.76,0,0,0,.02,0,.02,0,.01.01.02.02.02.02,0,.04,0,.05-.02.14-.31.14-.63.13-.76.05.02.09.04.13.07.02.01.05.03.07.04.05.03.1.06.16.09-.23,1.18-.81,2.53-1.84,3.2.86-.85,1.1-2.31,1.03-3.5M12.2,15.92c.13-.55.14-1.13.03-1.68-.01-.07-.03-.15-.03-.23,0-.06.01-.12.05-.16.04-.04.1-.07.16-.09.13-.04.25-.06.39-.06.04,1.15-.22,2.51-1.03,3.32.2-.33.35-.7.45-1.11M8.81,16.1c-.19.5-.93.74-1.15.8-.23.06-.48.09-.72.08.71-.19,1.36-.63,1.88-1.15.01.1.02.19,0,.28M8.82,14.61c.04.07.07.15.08.23-.04.14-.13.41-.31.63,0,0,0,.02,0,.03,0,0,0,.01.01.02.01.01.04.01.05,0,.13-.16.22-.34.27-.48,0,.14-.03.28-.08.39-.02.04-.02.08-.03.12-.47.52-1.09.96-1.76,1.19.59-.36,1.1-.83,1.45-1.44.08-.14.27-.45.32-.68M8.12,14.23c.05,0,.11.01.18.02-.01.15-.05.42-.18.67,0,0,0,.02,0,.03,0,0,0,.02.02.02.02,0,.04,0,.05-.01.14-.26.18-.53.19-.69.1.03.2.07.29.14.02.01.03.03.05.04-.06.22-.26.58-.34.72-.23.4-.53.73-.88,1.01.33-.57.45-1.32.44-1.93.07-.01.14-.02.21-.02M7.26,14.31c.07.01.14.01.2,0,.03.14.07.42,0,.7,0,0,0,.01,0,.02,0,.01.01.02.03.02.02,0,.04,0,.04-.03.07-.29.03-.57,0-.72.07,0,.15-.02.22-.04,0,.77-.21,1.73-.81,2.22.45-.57.46-1.46.29-2.19,0,0,.02,0,.03,0M6.89,14.14s.09.04.14.07c.02.01.04.03.06.04.18.77.15,1.75-.45,2.26.47-.68.4-1.62.04-2.4.07,0,.13.01.2.03M6.33,14.22c.07-.03.16-.08.19-.09.02,0,.04,0,.06-.01.3.66.37,1.43.06,2.04.12-.39.1-.83,0-1.23-.07-.25-.17-.49-.31-.7"/>
    </g>
  </g>
</svg>