<?xml version="1.0" encoding="UTF-8"?>
<svg id="Layer_2" data-name="Layer 2" xmlns="http://www.w3.org/2000/svg" viewBox="0 0 7.97 8.03">
  <defs>
    <style>
      .cls-1 {
        fill: #fff;
        stroke-width: 0px;
      }
    </style>
  </defs>
  <g id="OBJECTS">
    <path class="cls-1" d="M0,6.93c.14-.69.66-1.02,1.22-1.28.96-.44,1.98-.67,3.04-.62,1.01.05,1.98.29,2.86.81,0,0,0,0,.01,0,.41.26.75.57.84,1.08v1.1H0v-1.1Z"/>
    <path class="cls-1" d="M4.1,0c.17.04.35.06.52.12.89.29,1.43,1.17,1.34,2.11-.09.91-.81,1.65-1.72,1.77-1.09.14-2.07-.62-2.23-1.73C1.86,1.2,2.64.18,3.7.03c.06,0,.11-.02.17-.03h.23Z"/>
  </g>
</svg>