<?xml version="1.0" encoding="UTF-8"?>
<svg id="Layer_2" data-name="Layer 2" xmlns="http://www.w3.org/2000/svg" viewBox="0 0 20.1 20.18">
  <defs>
    <style>
      .cls-1 {
        font-family: UTM-God's-Word, 'UTM God's Word';
        font-size: 1.23px;
        letter-spacing: .2em;
      }

      .cls-1, .cls-2 {
        fill: #fff;
      }

      .cls-2 {
        stroke-width: 0px;
      }
    </style>
  </defs>
  <g id="OBJECTS">
    <g>
      <text class="cls-1" transform="translate(8.57 13.29)"><tspan x="0" y="0">Healthy World</tspan></text>
      <g>
        <path class="cls-2" d="M12.64,5.42c1.12-.16,2.55.03,3.44.52-1.58,1.58-3.34-.07-5.08-.15,1.53-1.48,3.03-1.81,4.27-1.26-1.76-1.2-3.91-1.7-5.99-1.43-1.65.22-2.44,1.26-2.81,2.44.6-.98,1.02-1.43,1.31-1.67.53,1.1-1.03,1.98-1.7,2.98-.6-1.27-.03-2.43.74-3.03-.45.21-.88.45-1.29.72-1.19.83-2.2,1.96-2.86,3.27,2.03.31,1.76,2.6,1.05,4.39-.31-.89-.79-1.41-1.19-2.12-.22-.38-.33-.81-.33-1.22,0-.98.96-2.58,1.65-3.43-.65.41-1.22.46-2.34-.19,1-.05,1.96-1.22,2.62-.5-.26.21-.83.55-1.58.55.81.17,1.53-.22,2.01-.64.36-.36.77-.69,1.2-1,1.17-.81,2.48-1.31,3.79-1.51-.57-.36-1.1-1.03-1.41-2.15,1.1.5,2.72.15,3.13,1.75-.45-.1-1.05-.33-1.77-.69,1.12.91,1.74.89,2.94,1.08,2.39.38,4.63,1.7,6.11,3.85.84,1.22,1.34,2.58,1.53,3.96-.41-1.08-1.03-2.15-1.81-2.96-1.67-1.79-3.58-2.41-5.64-1.58Z"/>
        <path class="cls-2" d="M.06,11.19c.43-.58,1.43-.73,2.09-1.19-.24-.45-.35-1.48.02-2.24C.4,7.3-.2,10.43.06,11.19h0Z"/>
        <path class="cls-2" d="M1.73,12.2c1.17-.74,1.15-.76.55-1.96-1.17.74-1.15.76-.55,1.96Z"/>
      </g>
      <g>
        <path class="cls-2" d="M8.14,12.44c-.14.12-.29.19-.45.19-.25,0-.63-.21-1.15-.63-.12.02-.22.04-.3.04-.36,0-.66-.12-.91-.36-.25-.24-.37-.53-.37-.88s.13-.65.39-.89.58-.36.96-.36.68.12.92.35c.25.23.37.52.37.87,0,.16-.03.32-.1.48-.07.16-.15.29-.27.4-.07.07-.16.13-.28.19.43.4.81.6,1.14.6h.04ZM7.19,10.83c0-.28-.09-.52-.26-.72-.17-.2-.39-.31-.67-.31-.24,0-.45.08-.62.23-.19.17-.28.4-.28.69s.08.52.25.73.39.32.68.32c.26,0,.48-.09.65-.26.17-.18.25-.4.25-.68Z"/>
        <path class="cls-2" d="M9.62,11.97h-.45v-.23c-.09.11-.17.18-.24.22-.07.04-.17.06-.28.06-.25,0-.43-.08-.54-.25-.07-.1-.1-.25-.1-.46v-.64c0-.12,0-.19-.02-.23-.01-.04-.05-.08-.12-.13h.24c.1,0,.17-.02.21-.07v1c0,.17.03.28.09.36.07.09.18.14.32.14.13,0,.23-.04.3-.12.08-.08.11-.18.11-.31v-.64c0-.12,0-.19-.02-.23-.01-.04-.05-.08-.12-.13h.25c.1,0,.16-.02.21-.07v1.37c0,.12,0,.19.02.23.01.04.05.08.12.13Z"/>
        <path class="cls-2" d="M11.59,11.76l-.16.23c-.16-.01-.27-.04-.34-.08s-.11-.1-.12-.16c-.01-.04-.02-.11-.02-.21v-.46c-.08.04-.23.08-.46.14-.17.04-.26.13-.26.28,0,.09.03.16.1.21.07.05.16.08.28.08.08,0,.17-.02.27-.05l-.21.27c-.06.01-.13.02-.2.02-.18,0-.32-.05-.43-.14-.12-.11-.18-.24-.18-.4,0-.17.07-.29.2-.36.09-.05.25-.1.47-.14.16-.03.27-.06.32-.1.06-.03.08-.08.08-.15,0-.07-.03-.12-.09-.17-.06-.04-.15-.06-.25-.06-.13,0-.29.05-.49.14l.24-.36c.08-.02.16-.02.25-.02.31,0,.51.08.61.24.05.08.07.22.07.43v.46c0,.1,0,.16,0,.18.01.06.05.1.11.13.04.03.11.04.19.04Z"/>
        <path class="cls-2" d="M13.5,11.97h-.6c.06-.05.1-.09.12-.13s.02-.11.02-.22v-.57c0-.17-.03-.29-.08-.36-.08-.1-.2-.15-.36-.15-.07,0-.15.02-.22.05-.07.03-.12.08-.15.14-.02.04-.02.09-.02.17v.73c0,.12,0,.19.02.23.01.04.05.08.12.13h-.6c.06-.05.1-.09.12-.13.01-.04.02-.11.02-.23v-.95c0-.12,0-.19-.02-.23s-.05-.08-.12-.13h.23c.1,0,.17-.02.21-.07v.3c.16-.19.34-.28.53-.28.12,0,.24.03.35.08.12.06.2.15.24.25.03.07.04.21.04.41v.61c0,.12,0,.19.02.23.01.04.05.08.12.13Z"/>
        <path class="cls-2" d="M14.78,11.74l-.19.25s-.08.02-.13.02c-.15,0-.27-.05-.37-.16-.06-.07-.1-.15-.12-.24,0-.05-.01-.14-.01-.28v-.79h-.24v-.13c.12-.02.22-.07.3-.16.09-.1.13-.25.13-.44v-.04h.14v.54h.28c.1,0,.17,0,.21-.02v.32s-.12-.06-.22-.06h-.27v.76c0,.17.02.28.06.34.07.08.16.12.28.12.05,0,.1,0,.15-.03Z"/>
        <path class="cls-2" d="M16.69,11.97h-.45v-.23c-.09.11-.17.18-.24.22-.07.04-.17.06-.28.06-.25,0-.43-.08-.54-.25-.07-.1-.1-.25-.1-.46v-.64c0-.12,0-.19-.02-.23s-.05-.08-.12-.13h.24c.1,0,.17-.02.21-.07v1c0,.17.03.28.09.36.07.09.18.14.32.14.13,0,.23-.04.3-.12.08-.08.11-.18.11-.31v-.64c0-.12,0-.19-.02-.23s-.05-.08-.12-.13h.25c.1,0,.16-.02.21-.07v1.37c0,.12,0,.19.02.23.01.04.05.08.12.13Z"/>
        <path class="cls-2" d="M19.86,11.97h-.62c.06-.05.1-.09.12-.13.01-.04.02-.11.02-.23v-.56c0-.18-.03-.31-.09-.39-.08-.09-.18-.14-.32-.14-.17,0-.29.07-.36.2-.03.05-.04.14-.04.27v.61c0,.12,0,.19.02.23.01.04.05.08.12.13h-.6c.06-.05.1-.09.12-.13.01-.04.02-.11.02-.23v-.59c0-.17-.04-.3-.11-.37-.07-.08-.17-.12-.3-.12-.18,0-.3.07-.36.2-.03.05-.04.13-.04.23v.64c0,.12,0,.19.02.23.01.04.05.08.12.13h-.6c.06-.05.1-.09.12-.13.01-.04.02-.11.02-.23v-.95c0-.12,0-.19-.02-.23-.01-.04-.05-.08-.12-.13h.25c.09,0,.15-.02.19-.07v.3c.14-.19.31-.28.53-.28.24,0,.42.11.55.32.09-.12.17-.2.26-.24.09-.05.19-.07.31-.07.13,0,.25.03.35.08.12.06.2.14.25.25.03.08.05.21.05.38v.64c0,.1,0,.17.02.21.02.06.07.11.14.14Z"/>
      </g>
      <path class="cls-2" d="M18.84,14.18c-.65.22-1.75,1.75-2.29,2.28-.65.64-1.46,1.24-2.68,1.6-.74.22-1.65.41-1.77-.02-.05-.16.1-.35.79-.82.45-.3.83-.5,1.46-.78,1.31-.56,1.21-1.49-.26-1.29-1.09.15-2.27.99-3.3,1.44-3.12,1.38-5.22,1.12-6.91.04,2.66,3.54,8.05,4.71,11.82,2.22,1.6-1.05,2.73-2.47,3.56-4.2.24-.51-.1-.59-.42-.49Z"/>
      <path class="cls-2" d="M8.23,16.98s0,0,0,0c-1.64-.14-3.08-.98-4.44-1.99-.45-.34-.89-.69-1.33-1.04.1.31.23.62.37.93.28.61.63,1.21,1.05,1.76.21.07.42.14.63.21,1.35.46,2.48.55,3.72.13Z"/>
    </g>
  </g>
</svg>