<?xml version="1.0" encoding="UTF-8"?>
<svg id="Layer_2" data-name="Layer 2" xmlns="http://www.w3.org/2000/svg" viewBox="0 0 7.79 7.07">
  <defs>
    <style>
      .cls-1 {
        fill: #fff;
        stroke-width: 0px;
      }
    </style>
  </defs>
  <g id="OBJECTS">
    <g>
      <path class="cls-1" d="M.48,1.68h.85s.04-.03.06-.05c.14-.29.28-.58.42-.87.04-.09.08-.18.13-.28-.2,0-.4-.03-.59,0-.57.09-.92.59-.85,1.2h0ZM5.79,1.68h1.53v-.21c-.01-.5-.41-.93-.89-.99-.05,0-.08,0-.1.06-.11.25-.23.5-.35.75-.06.13-.12.26-.19.4h0ZM5.94.48s-.03,0-.04,0h-1.47s-.06.03-.08.06c-.11.23-.21.45-.32.68-.07.16-.15.31-.22.47.01,0,.02,0,.02,0h1.5s.05-.03.06-.05c.09-.19.18-.38.27-.57.09-.19.18-.39.28-.59h0ZM1.78,1.68s.02,0,.03,0h1.53s.06-.03.07-.05c.16-.33.32-.67.48-1.01.02-.05.04-.09.06-.15-.02,0-.03,0-.04,0h-1.51s-.06.03-.08.06c-.06.13-.12.26-.18.38-.12.25-.24.5-.36.76ZM.47,2.17v3.4c0,.57.45,1.03,1.02,1.03,1.61,0,3.21,0,4.82,0,.56,0,1.01-.46,1.01-1.03v-3.41H.47ZM7.79,1.36v4.36s-.01.04-.01.06c-.11.75-.74,1.3-1.49,1.3H1.5c-.83,0-1.5-.67-1.5-1.51V1.54c0-.08,0-.16.01-.24C.11.72.42.32.96.11c.13-.05.26-.07.39-.11h5.08s.03.01.05.01c.54.08.94.37,1.17.87.07.15.09.31.14.47h0Z"/>
      <path class="cls-1" d="M3.05,4.36v-1.1c0-.14.07-.23.2-.26.08-.02.14.01.2.06.34.23.67.47,1.01.71.18.13.37.25.55.38.18.12.18.31,0,.43-.52.36-1.05.73-1.57,1.09-.08.06-.17.07-.26.02-.09-.05-.13-.13-.13-.23v-1.1Z"/>
    </g>
  </g>
</svg>