<?xml version="1.0" encoding="UTF-8"?>
<svg id="Layer_2" data-name="Layer 2" xmlns="http://www.w3.org/2000/svg" xmlns:xlink="http://www.w3.org/1999/xlink" viewBox="0 0 15.8 15.8">
  <defs>
    <style>
      .cls-1 {
        fill: url(#linear-gradient);
      }

      .cls-1, .cls-2 {
        stroke-width: 0px;
      }

      .cls-2 {
        fill: #fff;
      }
    </style>
    <linearGradient id="linear-gradient" x1="0" y1="7.9" x2="15.8" y2="7.9" gradientUnits="userSpaceOnUse">
      <stop offset="0" stop-color="#ffb700"/>
      <stop offset="1" stop-color="#ff9100"/>
    </linearGradient>
  </defs>
  <g id="OBJECTS">
    <g>
      <circle class="cls-1" cx="7.9" cy="7.9" r="7.9"/>
      <g>
        <path class="cls-2" d="M10.4,7.91c0,1.22,0,2.44,0,3.66,0,.11-.02.13-.13.13-1.58,0-3.16,0-4.74,0-.1,0-.13-.02-.13-.13,0-2.44,0-4.89,0-7.33,0-.1.02-.13.13-.13,1.58,0,3.16,0,4.74,0,.1,0,.13.02.13.13,0,1.22,0,2.45,0,3.67h0ZM9.15,5.87c0-.69-.56-1.25-1.25-1.25-.69,0-1.25.56-1.25,1.25,0,.68.56,1.25,1.25,1.25.69,0,1.25-.56,1.25-1.25ZM7.29,11.51s.03,0,.04,0c.38,0,.76,0,1.14,0,.06,0,.06-.03.06-.07,0-.62,0-1.25,0-1.87,0-.06-.02-.07-.08-.07-.36,0-.72,0-1.08,0-.06,0-.08.02-.08.08,0,.62,0,1.23,0,1.85,0,.02,0,.05,0,.08ZM9.7,10.84v-.72h-.72v.72h.72ZM8.99,7.46s0,.03,0,.04c0,.21,0,.41,0,.62,0,.05.03.05.06.05.2,0,.39,0,.59,0,.06,0,.07-.02.07-.07,0-.19,0-.38,0-.56,0-.02,0-.05,0-.07h-.7ZM6.82,8.8h-.71s0,.02,0,.03c0,.21,0,.42,0,.63,0,.05.03.05.06.05.15,0,.31,0,.46,0q.19,0,.19-.19v-.52ZM9.69,8.8h-.7s0,.02,0,.02c0,.21,0,.42,0,.63,0,.04.02.05.06.05.1,0,.2,0,.29,0,.12,0,.24,0,.36,0v-.71ZM6.12,10.13s0,.02,0,.02c0,.22,0,.43,0,.65,0,.01.03.04.05.04.2,0,.4,0,.6,0,.04,0,.06-.01.06-.06,0-.2,0-.39,0-.59,0-.05-.02-.06-.06-.06-.12,0-.24,0-.36,0-.1,0-.19,0-.29,0ZM6.11,8.16s.02,0,.03,0c.21,0,.42,0,.63,0,.05,0,.05-.03.05-.07,0-.19,0-.39,0-.58,0-.02,0-.04,0-.06h-.7v.7ZM7.54,8.79h.71s0-.02,0-.04c0-.21,0-.41,0-.62,0-.05-.03-.05-.07-.05-.19,0-.39,0-.58,0-.06,0-.07.02-.07.07,0,.15,0,.3,0,.45,0,.06,0,.12,0,.18Z"/>
        <path class="cls-2" d="M5.19,5.34v6.35s-.04,0-.07,0c-.75,0-1.5,0-2.25,0-.1,0-.13-.02-.13-.13,0-2.03,0-4.07,0-6.1,0-.1.02-.13.11-.13.76,0,1.52,0,2.28,0,.01,0,.03,0,.05,0ZM3.71,7.52s.02,0,.03,0c.21,0,.42,0,.63,0,.04,0,.05-.03.05-.06,0-.2,0-.4,0-.59,0-.04-.01-.06-.05-.06-.2,0-.4,0-.61,0-.04,0-.05.01-.05.05,0,.07,0,.15,0,.22,0,.14,0,.28,0,.42ZM3.71,8.86s.02.01.03.01c.21,0,.43,0,.64,0,.04,0,.04-.02.04-.05,0-.2,0-.4,0-.6,0-.04-.01-.06-.06-.06-.2,0-.4,0-.6,0-.05,0-.06.02-.06.06,0,.12,0,.24,0,.36,0,.09,0,.19,0,.28ZM4.43,9.5h-.71v.7c.23,0,.45,0,.67,0,.01,0,.04-.03.04-.04,0-.22,0-.43,0-.66Z"/>
        <path class="cls-2" d="M10.62,11.69v-6.35s.05,0,.07,0c.74,0,1.49,0,2.23,0,.12,0,.14.02.14.14,0,1.19,0,2.39,0,3.58,0,.84,0,1.69-.01,2.53,0,.1,0,.11-.11.11-.68,0-1.37,0-2.05,0-.09,0-.17,0-.27,0ZM11.38,10.23h.7v-.73h-.7v.73ZM11.38,6.83s0,.04,0,.06c0,.19,0,.39,0,.58,0,.05.02.07.07.07.19,0,.39,0,.58,0,.02,0,.04,0,.06,0v-.7h-.7ZM11.73,8.16h0c-.1,0-.19,0-.29,0-.05,0-.07.01-.07.07,0,.19,0,.39,0,.58,0,.05.02.07.06.06.2,0,.4,0,.59,0,.04,0,.06-.01.06-.05,0-.2,0-.4,0-.6,0-.05-.02-.06-.06-.06-.1,0-.2,0-.29,0Z"/>
      </g>
    </g>
  </g>
</svg>