<?xml version="1.0" encoding="UTF-8"?>
<svg id="Layer_2" data-name="Layer 2" xmlns="http://www.w3.org/2000/svg" viewBox="0 0 6.85 7.11">
  <defs>
    <style>
      .cls-1 {
        fill: #fff;
        stroke-width: 0px;
      }
    </style>
  </defs>
  <g id="OBJECTS">
    <path class="cls-1" d="M3.34,0h.16s.03.01.04.01c.2.04.35.16.45.34.08.15.07.32.07.48,0,.08.02.11.1.13.82.23,1.35.78,1.64,1.57.14.38.19.78.19,1.19v2.01c0,.06.02.1.06.14.25.25.5.5.75.75.02.02.04.04.05.07,0,.14,0,.27,0,.41H0C0,6.99,0,6.87,0,6.75c0-.04.02-.09.05-.11.25-.25.5-.5.75-.75.04-.04.06-.08.06-.14v-2.01c0-.4.05-.8.19-1.19.17-.46.43-.86.83-1.17.25-.19.52-.33.83-.41.07-.02.1-.05.09-.12,0-.06,0-.12,0-.18,0-.17.05-.32.17-.45.1-.12.24-.18.39-.21h0Z"/>
  </g>
</svg>