<?xml version="1.0" encoding="UTF-8"?>
<svg id="Layer_2" data-name="Layer 2" xmlns="http://www.w3.org/2000/svg" viewBox="0 0 16.59 20.53">
  <defs>
    <style>
      .cls-1 {
        fill: #fff;
        stroke-width: 0px;
      }
    </style>
  </defs>
  <g id="OBJECTS">
    <g>
      <g>
        <g>
          <path class="cls-1" d="M2.28,5.09c1.41.84,2.4-.71,2.87-2.16-.65.39-1.2.46-1.81.68-.33.13-.61.33-.82.59-.5.61-.72,2.08-.73,2.95-.19-.58-.52-.91-1.52-1.07.58.54.58,1.75,1.35,1.63-.05-.26-.25-.78-.73-1.16.6.3.86.92.94,1.44h0c.04.4.12.81.24,1.22.31,1.09.85,2.06,1.56,2.85-.53-.08-1.2.07-1.96.6.94.25,1.75,1.27,2.82.51-.33-.16-.81-.33-1.44-.49,1.15.02,1.52.34,2.36.83,1.66.98,3.7,1.3,5.7.73,3.89-1.1,6.14-5.14,5.04-9.03-.68-2.41-2.5-4.2-4.71-4.94.58.37,1.13.81,1.62,1.31,1.02,1.04,1.8,2.31,2.09,3.63.32,1.44.12,3.2-.62,4.72-.71,1.47-1.83,2.57-3.25,3.15-1.58.64-3.24.08-4.09-1.47.59.66,1.58,1.27,2.37,1.43-.17-1.77-2.08-1.64-3.2-2.48.2,1.69.96,2.64,1.99,2.93-1.68-.15-3.25-.93-4.39-2.16-.9-.97-.86-2-.48-2.92-.13.91-.1,1.39-.05,1.69.89-.4.38-1.74.48-2.69-1.03.47-1.26,1.47-1.09,2.24-.17-.35-.31-.72-.42-1.1-.31-1.11-.36-2.32-.1-3.45h0Z"/>
          <path class="cls-1" d="M2.38,1.69c-.03.58.51,1.18.68,1.79-.37.16-.96.73-1.12,1.38-1.33-.61-.11-2.84.44-3.17h0Z"/>
          <path class="cls-1" d="M3.92,1.92c.34,1.05.32,1.05-.66,1.48-.34-1.05-.32-1.05.66-1.48Z"/>
        </g>
        <g>
          <path class="cls-1" d="M11.73,12.11c.36-2.47-1.08-3.14-3.06-2.56-1.35.4-1.63-.27-1.29-1.06.18-.42.35-1.08-.07-1.25-.24-.1-.22-.42,0-.53.11-.05.29-.09.42-.12-.25-.03-.73.04-.72-.38,0-.3.23-.5.2-.75-.3-.32-1.3-.4-.59-1.11.38-.38.93-.73,1.21-1.24.06-.11.1-.23.09-.37,0-.03,0-.06,0-.08-.33.04-.65-.07-.68-.34.28.27.54.18.67.09-.01-.8.19-1.87.98-2.24-.12,3.12,5.73,5.77,4.26,9.8-.35.96-.79,1.66-1.41,2.12h0Z"/>
          <path class="cls-1" d="M9.54,0c-.43,2.77,5.78,5.65,4.22,10.13.09-.15.17-.3.24-.45.68-1.4.86-3.01.57-4.33-.27-1.21-.98-2.38-1.93-3.34C11.75,1.1,10.65.39,9.54,0h0Z"/>
        </g>
      </g>
      <g>
        <g>
          <path class="cls-1" d="M5.65,19.98c0,.05-.02.1-.05.14-.03.04-.07.08-.13.1s-.13.04-.23.04h-.29s.05-.04.05-.08c0-.02,0-.05,0-.1v-.54s0-.08,0-.1c0-.03-.03-.06-.05-.07h.19s0,0,.02,0h.09c.08,0,.15.01.19.03.07.04.11.09.11.17,0,.06-.03.11-.08.14-.01,0-.03.02-.06.03.04.01.07.02.1.04.08.05.12.11.12.2ZM5.42,19.59s-.02-.07-.05-.1c-.03-.02-.07-.04-.12-.04-.02,0-.05,0-.09,0v.26s.03,0,.05,0c.06,0,.12-.01.15-.04.04-.03.06-.06.06-.1ZM5.5,20c0-.06-.02-.1-.06-.14s-.1-.05-.18-.05c-.03,0-.07,0-.1,0v.33s.08.01.12.01c.07,0,.13-.01.17-.04.04-.03.06-.07.06-.12Z"/>
          <path class="cls-1" d="M6.71,20.11l-.07.13c-.06.02-.12.03-.19.03-.11,0-.2-.03-.27-.09-.07-.06-.11-.14-.11-.24s.04-.18.11-.25c.06-.05.13-.08.22-.08s.16.03.22.08.09.13.09.21v.02h-.5c0,.08.03.14.08.18.05.04.11.07.19.07s.16-.02.23-.07ZM6.57,19.85c-.02-.1-.08-.15-.17-.15s-.16.05-.18.15h.35Z"/>
          <path class="cls-1" d="M7.77,20.18l-.06.09c-.06,0-.1-.01-.13-.03-.02-.02-.04-.04-.05-.06,0-.02,0-.04,0-.08v-.17s-.09.03-.17.05c-.06.02-.1.05-.1.1,0,.03.01.06.04.08s.06.03.11.03c.03,0,.06,0,.1-.02l-.08.1s-.05,0-.07,0c-.07,0-.12-.02-.16-.05-.05-.04-.07-.09-.07-.15,0-.06.03-.11.08-.14.03-.02.09-.04.18-.05.06-.01.1-.02.12-.04.02-.01.03-.03.03-.06,0-.03-.01-.05-.04-.06-.02-.02-.05-.02-.09-.02-.05,0-.11.02-.18.05l.09-.14s.06,0,.09,0c.11,0,.19.03.23.09.02.03.03.08.03.16v.17s0,.06,0,.07c0,.02.02.04.04.05.02,0,.04.01.07.02Z"/>
          <path class="cls-1" d="M8.8,20.26h-.17v-.09s-.06.07-.09.08c-.03.01-.06.02-.11.02-.09,0-.16-.03-.2-.09-.03-.04-.04-.1-.04-.17v-.24s0-.07,0-.09c0-.01-.02-.03-.04-.05h.09s.06,0,.08-.03v.37c0,.06.01.11.03.13.03.03.07.05.12.05.05,0,.08-.01.11-.04.03-.03.04-.07.04-.12v-.24s0-.07,0-.09c0-.01-.02-.03-.04-.05h.09s.06,0,.08-.03v.51s0,.07,0,.08c0,.01.02.03.04.05Z"/>
          <path class="cls-1" d="M9.6,20.17l-.07.1s-.03,0-.05,0c-.05,0-.1-.02-.14-.06-.02-.02-.04-.05-.04-.09,0-.02,0-.05,0-.1v-.3h-.09v-.05s.08-.03.11-.06c.03-.04.05-.09.05-.17v-.02h.05v.2h.1s.07,0,.08,0v.12s-.05-.02-.08-.02h-.1v.29c0,.06,0,.11.02.13.02.03.06.05.1.05.02,0,.04,0,.06-.01Z"/>
          <path class="cls-1" d="M10.64,19.64l-.29.68c-.03.07-.06.12-.1.15-.05.04-.11.06-.18.06-.05,0-.1-.01-.16-.03l.12-.09s.05.02.08.02c.07,0,.12-.05.16-.15v-.04s-.04-.06-.06-.1l-.18-.39s-.03-.06-.05-.08c-.01-.02-.03-.03-.05-.04h.13s.03,0,.04,0c0,0,.02.02.03.04l.21.46.14-.36s.02-.06.02-.08c0-.02-.01-.04-.04-.06h.19Z"/>
          <path class="cls-1" d="M12.88,19.37l-.28.92s-.02-.02-.05-.03c-.04-.03-.07-.05-.08-.07s-.03-.05-.04-.1l-.15-.48-.21.68s-.04-.03-.06-.04c-.04-.02-.06-.04-.07-.06-.01-.02-.03-.05-.04-.1l-.17-.53c-.02-.06-.04-.11-.05-.13-.01-.02-.03-.04-.06-.06h.2s0,.02,0,.02c0,.01,0,.04.01.06l.21.65.17-.54s.02-.09.02-.11c0-.03-.02-.06-.05-.08h.19s0,.02,0,.03c0,.02,0,.05.02.09l.2.61.16-.52c.02-.06.03-.1.03-.12,0-.04-.02-.07-.07-.09h.2Z"/>
          <path class="cls-1" d="M13.96,19.94c0,.09-.03.17-.1.24s-.15.1-.26.1-.18-.03-.25-.09c-.07-.06-.1-.14-.1-.23,0-.11.04-.19.13-.26.06-.05.14-.07.24-.07s.17.03.23.09c.07.06.1.14.1.24ZM13.82,19.96c0-.08-.02-.14-.06-.18s-.09-.07-.16-.07c-.06,0-.11.02-.15.06s-.06.1-.06.16c0,.07.02.13.06.18s.09.07.16.07.11-.02.15-.06c.04-.04.06-.09.06-.16Z"/>
          <path class="cls-1" d="M14.77,19.75s-.04-.02-.06-.02c-.05,0-.09.02-.12.05-.02.03-.03.07-.03.12v.22s0,.07,0,.08c0,.01.02.03.04.05h-.22s.04-.03.04-.05,0-.04,0-.08v-.36s0-.07,0-.09c0-.01-.02-.03-.04-.05h.09s.06,0,.08-.03v.11c.04-.07.09-.1.16-.1.01,0,.03,0,.05,0v.12Z"/>
          <path class="cls-1" d="M15.37,20.26h-.22s.04-.03.04-.05c0-.01,0-.04,0-.08v-.62s0-.07,0-.09c0-.01-.02-.03-.04-.05h.09s.06,0,.08-.03v.78s0,.07,0,.08c0,.01.02.03.04.05Z"/>
          <path class="cls-1" d="M16.49,20.26h-.17v-.31s0-.07,0-.09c0-.03-.02-.06-.03-.08-.04-.05-.09-.07-.15-.07-.06,0-.11.02-.14.06-.04.04-.06.09-.06.16,0,.07.02.13.07.18.04.05.1.07.17.07.04,0,.08-.01.12-.04l-.08.12s-.05,0-.07,0c-.08,0-.15-.02-.2-.05-.09-.06-.14-.15-.14-.27,0-.09.03-.17.09-.23.06-.06.14-.1.22-.1.08,0,.15.03.21.08v-.19s0-.07,0-.09c0-.01-.02-.03-.04-.05h.09s.06,0,.08-.03v.78s0,.07,0,.08c0,.01.02.03.04.05Z"/>
        </g>
        <g>
          <path class="cls-1" d="M3.55,19.37c-.15.14-.32.21-.51.21-.28,0-.7-.23-1.28-.7-.14.03-.25.04-.33.04-.4,0-.74-.13-1.01-.4-.27-.27-.41-.59-.41-.98s.14-.72.43-.99.64-.4,1.07-.4.75.13,1.03.39c.28.26.41.58.41.96,0,.18-.04.36-.11.53-.07.18-.17.33-.3.45-.07.07-.18.15-.31.22.48.45.9.67,1.27.67h.05ZM2.49,17.58c0-.31-.09-.58-.28-.8-.19-.23-.44-.34-.74-.34-.27,0-.5.09-.69.26-.21.19-.32.44-.32.77s.09.58.27.82.44.35.76.35c.29,0,.53-.1.72-.29.19-.2.28-.45.28-.76Z"/>
          <path class="cls-1" d="M5.19,18.85h-.5v-.26c-.1.12-.19.2-.27.25-.08.04-.19.07-.31.07-.28,0-.48-.09-.6-.28-.08-.11-.11-.28-.11-.51v-.72c0-.13,0-.21-.02-.25-.02-.04-.06-.09-.13-.14h.27c.11,0,.19-.03.24-.08v1.12c0,.18.03.32.1.4.08.1.2.15.36.15.14,0,.25-.04.34-.13.08-.09.13-.2.13-.35v-.72c0-.13,0-.21-.02-.26-.01-.04-.06-.09-.13-.14h.28c.11,0,.18-.03.23-.08v1.53c0,.13,0,.21.02.25.01.04.06.09.13.14Z"/>
          <path class="cls-1" d="M7.38,18.62l-.17.26c-.18-.01-.3-.04-.37-.09s-.12-.11-.13-.18c-.01-.05-.02-.13-.02-.24v-.52c-.09.04-.26.09-.51.15-.19.05-.29.15-.29.31,0,.1.04.18.11.24.07.06.18.09.31.09.09,0,.18-.02.3-.05l-.24.3c-.07.02-.14.02-.22.02-.2,0-.36-.05-.48-.16-.14-.12-.21-.27-.21-.45,0-.18.07-.32.22-.4.1-.06.28-.11.53-.16.18-.03.3-.07.36-.11.06-.04.09-.09.09-.17,0-.08-.04-.14-.11-.19-.07-.05-.16-.07-.28-.07-.14,0-.32.05-.55.16l.27-.4c.09-.02.18-.03.28-.03.34,0,.57.09.68.27.05.09.08.25.08.48v.52c0,.11,0,.18.01.21.01.06.05.11.12.15.05.03.12.04.21.05Z"/>
          <path class="cls-1" d="M9.52,18.85h-.67c.07-.06.12-.1.13-.14s.02-.12.02-.25v-.64c0-.19-.03-.33-.09-.4-.09-.11-.22-.17-.4-.17-.08,0-.16.02-.24.06-.08.04-.13.09-.17.16-.02.04-.03.1-.03.19v.81c0,.13,0,.21.02.25.02.04.06.09.13.14h-.66c.07-.06.11-.1.13-.14.02-.04.02-.12.02-.25v-1.06c0-.13,0-.21-.02-.25s-.06-.09-.13-.14h.26c.11,0,.19-.03.24-.08v.33c.18-.21.38-.31.59-.31.14,0,.27.03.39.09.13.07.22.16.27.28.03.08.05.23.05.45v.68c0,.13,0,.21.02.25.01.04.06.09.13.14Z"/>
          <path class="cls-1" d="M10.94,18.6l-.21.28s-.09.02-.14.02c-.16,0-.3-.06-.41-.18-.07-.07-.11-.16-.13-.27,0-.05-.01-.16-.01-.31v-.89h-.27v-.14c.14-.02.25-.08.33-.17.1-.11.15-.27.15-.49v-.05h.16v.6h.31c.12,0,.19,0,.24-.02v.36c-.06-.05-.14-.07-.25-.07h-.3v.85c0,.19.02.32.07.37.07.09.18.14.31.14.05,0,.11-.01.17-.03Z"/>
          <path class="cls-1" d="M13.07,18.85h-.5v-.26c-.1.12-.19.2-.27.25-.08.04-.19.07-.31.07-.28,0-.48-.09-.6-.28-.08-.11-.11-.28-.11-.51v-.72c0-.13,0-.21-.02-.25s-.06-.09-.13-.14h.27c.11,0,.19-.03.24-.08v1.12c0,.18.03.32.1.4.08.1.2.15.36.15.14,0,.25-.04.34-.13.08-.09.13-.2.13-.35v-.72c0-.13,0-.21-.02-.26s-.06-.09-.13-.14h.28c.11,0,.18-.03.23-.08v1.53c0,.13,0,.21.02.25.01.04.06.09.13.14Z"/>
          <path class="cls-1" d="M16.59,18.85h-.7c.07-.05.11-.1.13-.14.02-.04.03-.13.03-.25v-.62c0-.21-.03-.35-.1-.44-.08-.1-.2-.16-.36-.16-.19,0-.32.07-.4.22-.03.05-.04.15-.04.3v.68c0,.13,0,.21.02.25.02.04.06.09.13.14h-.67c.07-.05.11-.1.13-.14.02-.04.02-.13.02-.25v-.65c0-.19-.04-.33-.12-.41-.08-.09-.19-.13-.33-.13-.2,0-.33.07-.4.22-.03.06-.04.14-.04.26v.71c0,.13,0,.21.02.25.02.04.06.09.13.14h-.66c.07-.06.11-.1.13-.14.02-.04.02-.12.02-.25v-1.06c0-.13,0-.21-.02-.25-.02-.04-.06-.09-.13-.14h.28c.1,0,.17-.03.22-.08v.34c.15-.21.35-.32.59-.32.26,0,.47.12.61.35.1-.13.19-.22.29-.27.1-.05.21-.08.34-.08.14,0,.27.03.39.09.13.06.22.16.27.28.04.09.06.23.06.42v.72c0,.12,0,.19.02.24.02.07.08.12.16.16Z"/>
        </g>
      </g>
    </g>
  </g>
</svg>