<?xml version="1.0" encoding="UTF-8"?>
<svg id="Layer_2" data-name="Layer 2" xmlns="http://www.w3.org/2000/svg" viewBox="0 0 8.45 4.86">
  <g id="OBJECTS">
    <g>
      <rect fill="#fff" stroke-width="0px" x="0" y="0" width="8.45" height="4.86"/>
      <g>
        <g>
          <path fill="#00237d" stroke-width="0px" d="M.94,0h2.58c0,.49,0,.99,0,1.48C2.66.99,1.8.49.94,0Z"/>
          <path fill="#00237d" stroke-width="0px" d="M4.93,0h2.58c-.86.49-1.72.99-2.58,1.48,0-.49,0-.99,0-1.48Z"/>
          <path fill="#00237d" stroke-width="0px" d="M0,.54c.62.36,1.25.72,1.87,1.08-.62,0-1.25,0-1.87,0V.54Z"/>
          <path fill="#00237d" stroke-width="0px" d="M6.58,1.62c.62-.36,1.25-.72,1.87-1.08v1.08c-.62,0-1.25,0-1.87,0Z"/>
          <path fill="#00237d" stroke-width="0px" d="M0,3.24c.62,0,1.25,0,1.87,0-.62.36-1.25.72-1.87,1.08v-1.08Z"/>
          <path fill="#00237d" stroke-width="0px" d="M6.58,3.24c.22,0,.44,0,.65,0,.41,0,.81,0,1.22,0v1.08c-.05-.03-.11-.06-.16-.1-.57-.33-1.14-.66-1.71-.98Z"/>
          <path fill="#00237d" stroke-width="0px" d="M.95,4.86c.86-.49,1.72-.99,2.58-1.48,0,.49,0,.99,0,1.48H.95Z"/>
          <path fill="#00237d" stroke-width="0px" d="M4.93,3.38c.86.49,1.72.99,2.58,1.48h-2.58c0-.49,0-.99,0-1.48Z"/>
        </g>
        <g>
          <path fill="#c8142c" stroke-width="0px" d="M3.8,0h.85c0,.65,0,1.3,0,1.95h3.8v.97c-1.06,0-2.12,0-3.18,0-.21,0-.41,0-.62,0,0,.65,0,1.3,0,1.95h-.85c0-.65,0-1.3,0-1.94-1.27,0-2.54,0-3.8,0v-.97c.09,0,.18,0,.27,0h3.53c0-.65,0-1.3,0-1.95Z"/>
          <path fill="#c8142c" stroke-width="0px" d="M7.82,0h.63s0,0,0,0c-.94.54-1.87,1.08-2.81,1.62-.02,0-.03,0-.05,0-.2,0-.39,0-.59,0,.03-.02.06-.04.09-.05.91-.52,1.81-1.04,2.72-1.57Z"/>
          <path fill="#c8142c" stroke-width="0px" d="M0,0h0c.79.45,1.58.9,2.37,1.36.15.08.3.17.44.25-.19,0-.39,0-.58,0-.02,0-.04,0-.06,0C1.45,1.2.72.78,0,.36V0Z"/>
          <path fill="#c8142c" stroke-width="0px" d="M2.8,3.25s.04,0,.06,0c.2,0,.39,0,.59,0-.94.54-1.88,1.08-2.82,1.62h-.63s0,0,0,0c.93-.54,1.87-1.08,2.8-1.61Z"/>
          <path fill="#c8142c" stroke-width="0px" d="M5.64,3.24c.2,0,.4,0,.6,0,.03,0,.05.02.08.03.71.41,1.42.82,2.13,1.23v.35h0c-.94-.53-1.88-1.07-2.82-1.61Z"/>
        </g>
      </g>
    </g>
  </g>
</svg>