<?xml version="1.0" encoding="UTF-8"?>
<svg id="Layer_2" data-name="Layer 2" xmlns="http://www.w3.org/2000/svg" viewBox="0 0 3.79 4.25">
  <defs>
    <style>
      .cls-1 {
        fill: #fff;
        stroke-width: 0px;
      }
    </style>
  </defs>
  <g id="OBJECTS">
    <path class="cls-1" d="M1.66.29c-.34,0-.66.12-.91.34C.24,1.07.11,1.81.46,2.39c.42.69,1.33.88,2,.43.49-.33.71-.93.56-1.49-.16-.61-.72-1.04-1.36-1.03h0ZM0,1.66c0-.06,0-.12.01-.18.04-.31.15-.59.35-.83C.6.33.91.13,1.3.04c.83-.19,1.67.27,1.94,1.08.21.63.08,1.2-.35,1.69,0,0-.01.01-.02.02,0,0,0,0,0,0,.03.04.06.07.09.11.23.27.46.54.7.81.07.08.12.17.14.28,0,.03,0,.05,0,.08,0,.09-.07.14-.16.12-.07-.02-.13-.06-.18-.11-.08-.09-.16-.18-.24-.27-.18-.21-.37-.43-.55-.64-.03-.04-.06-.08-.1-.13-.02.01-.05.03-.08.05-.3.17-.63.25-.97.22-.71-.06-1.28-.55-1.46-1.25-.03-.12-.05-.23-.05-.35,0-.02,0-.04,0-.05v-.04h0Z"/>
  </g>
</svg>