<?xml version="1.0" encoding="UTF-8"?>
<svg id="Layer_2" data-name="Layer 2" xmlns="http://www.w3.org/2000/svg" xmlns:xlink="http://www.w3.org/1999/xlink" viewBox="0 0 15.8 15.8">
  <defs>
    <style>
      .cls-1 {
        fill: url(#linear-gradient);
      }

      .cls-1, .cls-2 {
        stroke-width: 0px;
      }

      .cls-2 {
        fill: #fff;
      }
    </style>
    <linearGradient id="linear-gradient" x1="0" y1="7.9" x2="15.8" y2="7.9" gradientUnits="userSpaceOnUse">
      <stop offset="0" stop-color="#008b5d"/>
      <stop offset="1" stop-color="#1c7069"/>
    </linearGradient>
  </defs>
  <g id="OBJECTS">
    <g>
      <circle class="cls-1" cx="7.9" cy="7.9" r="7.9"/>
      <path class="cls-2" d="M7.03,10.25v-.79h-.79v.79h.79ZM7.42,10.25c.21.02.37.01.54-.12.18-.14.4-.23.61-.33.1-.05.21-.07.32-.1-.11-.16-.26-.24-.44-.24h-1.03v.8h0ZM7.11,5.64h0c0-.05,0-.1,0-.15-.02-.26-.22-.46-.47-.46-.25,0-.46.18-.48.44-.01.13-.01.27,0,.4.03.24.24.42.48.41.24,0,.44-.2.46-.44,0-.07,0-.13,0-.2ZM7.86,7.9c-.01-.47-.2-.82-.59-1.06-.41-.26-.95-.24-1.34.06-.34.25-.5.58-.5,1.01h2.44ZM8.9,8.56h0c0,.1,0,.2,0,.29.02.43.37.79.8.82.44.03.85-.28.91-.71.03-.25.03-.52,0-.77-.05-.41-.42-.71-.83-.72-.42,0-.8.28-.87.69-.02.13-.02.27-.02.4h0ZM3.37,8.28c-.1.54.21.82.67.81,1.44-.02,2.88,0,4.32,0h.17v-.8H3.37ZM10.18,3.56c-.38,0-.75,0-1.13,0-.23,0-.32.09-.32.32,0,.5,0,1,0,1.5,0,.22.09.31.31.31.75,0,1.51,0,2.26,0,.21,0,.3-.09.3-.3,0-.51,0-1.01,0-1.52,0-.23-.09-.31-.31-.31-.37,0-.74,0-1.12,0h0ZM3.36,7.89h1.69c.03-.7.36-1.19.98-1.5-.27-.29-.26-.64-.23-.98.04-.45.43-.77.87-.75.44.02.8.38.81.82.01.32.02.65-.24.91.63.31.96.81.98,1.51.06,0,.11,0,.16,0,.15.02.23-.03.31-.18.17-.33.46-.54.83-.61.12-.02.24-.03.37-.04v-1.02h-.83c-.47,0-.71-.24-.71-.72,0-.3,0-.6,0-.9,0-.11-.02-.15-.14-.15-1.43,0-2.85,0-4.28,0-.35,0-.58.23-.58.59,0,.29,0,.58,0,.87v2.14h0ZM10.64,9.7c.09.02.15.04.22.06,1.04.29,1.61,1.28,1.55,2.04-.02.21,0,.41,0,.62,0,.14-.06.2-.19.2-.53,0-1.06,0-1.58,0-.12,0-.21-.05-.21-.17,0-.13.09-.18.2-.18.41,0,.83,0,1.24,0,.15,0,.19-.04.19-.19.01-.51-.07-.98-.41-1.38-.35-.42-.8-.64-1.35-.65-.34,0-.68,0-1.02,0-.98,0-1.75.77-1.78,1.74,0,.11,0,.22,0,.33,0,.11.03.14.14.14.41,0,.83,0,1.24,0,.06,0,.14,0,.17.04.04.04.09.14.07.18-.03.06-.11.13-.18.13-.39.01-.79,0-1.18,0-.14,0-.28,0-.42,0-.14,0-.21-.07-.21-.2-.02-.6-.02-1.19.32-1.72,0,0,0-.02,0-.04-.05,0-.11,0-.16,0h-1.86s-.09,0-.14,0c-.11-.01-.18-.07-.18-.18,0-.12.07-.18.19-.18.15,0,.31,0,.47,0,.03,0,.06,0,.1-.01v-.79c-.06,0-.11,0-.17,0-.57,0-1.14,0-1.71,0-.6,0-.99-.39-.99-.99,0-1.18,0-2.37,0-3.55,0-.59.39-.98.98-.99,1.4,0,2.79,0,4.19,0h.19c0-.08.01-.15.02-.21.05-.3.28-.52.58-.52.81,0,1.61,0,2.42,0,.33,0,.58.25.59.58.01.57.01,1.14,0,1.71,0,.34-.28.58-.62.58-.29,0-.58,0-.87,0h-.19c0,.3.01.59,0,.88,0,.18.04.28.2.38.32.2.49.51.52.89.02.24.01.48,0,.71-.02.29-.15.53-.36.77h0Z"/>
    </g>
  </g>
</svg>