<?xml version="1.0" encoding="UTF-8"?>
<svg id="Layer_2" data-name="Layer 2" xmlns="http://www.w3.org/2000/svg" xmlns:xlink="http://www.w3.org/1999/xlink" viewBox="0 0 15.8 15.8">
  <defs>
    <style>
      .cls-1 {
        fill: url(#linear-gradient);
      }

      .cls-1, .cls-2 {
        stroke-width: 0px;
      }

      .cls-2 {
        fill: #fff;
      }
    </style>
    <linearGradient id="linear-gradient" x1="0" y1="7.9" x2="15.8" y2="7.9" gradientUnits="userSpaceOnUse">
      <stop offset="0" stop-color="#be6e5a"/>
      <stop offset="1" stop-color="#925042"/>
    </linearGradient>
  </defs>
  <g id="OBJECTS">
    <circle class="cls-1" cx="7.9" cy="7.9" r="7.9"/>
    <g>
      <path class="cls-2" d="M8.5,4.26s-.04,0-.06,0c.02.3,0,.61.07.9.03.15.19.3.33.38.33.18.71.09,1.12.11-.52-.5-.99-.94-1.47-1.39h0ZM8.42,3.62c.33.3.66.61.98.92.33.31.66.62.98.94.07.07.13.19.13.29.01.37,0,.74,0,1.11,0,.14-.04.26-.2.26-.17,0-.22-.11-.22-.26v-.8c-.24,0-.47.01-.71,0-.2-.01-.41-.03-.6-.08-.47-.14-.75-.54-.76-1.04,0-.29,0-.59,0-.91h-2.54c-.51,0-.77.25-.77.75v6.21c0,.5.26.75.77.75,1.28,0,2.56,0,3.84,0,.34,0,.59-.1.74-.42.05-.11.15-.18.28-.11.13.07.16.17.1.3-.13.28-.33.48-.63.59-.06.02-.12.04-.17.07h-4.43c-.16-.07-.33-.13-.48-.22-.26-.17-.37-.44-.44-.72v-6.71c.13-.48.43-.78.92-.9h3.21Z"/>
      <path class="cls-2" d="M12.77,7.2c-.11.12-.23.25-.35.39-.26-.28-.51-.55-.77-.82-.01.01-.03.03-.04.04,0-.01,0-.03.01-.03.41-.44.37-.44.78-.03.12.12.24.23.37.35v.11h0Z"/>
      <path class="cls-2" d="M10.63,9.11c-.18-.17-.34-.32-.52-.49-.05.24-.1.44-.15.66.24-.06.43-.11.66-.18h0ZM9.82,9.44c.08-.36.15-.68.23-1,0-.04.03-.08.06-.11.4-.42.79-.83,1.21-1.25.27.26.54.51.83.78-.25.26-.51.49-.72.76-.33.42-.74.68-1.28.75-.1.01-.19.05-.33.08Z"/>
      <path class="cls-2" d="M9.27,10.55c.21-.06.41-.11.62-.17.51-.16,1.01-.35,1.55-.36.14,0,.3,0,.42.07.1.05.18.17.22.28.02.05-.06.17-.12.2-.05.03-.19.01-.22-.03-.13-.18-.29-.15-.46-.1-.47.13-.93.29-1.41.4-.28.07-.57.1-.86.09-.28,0-.49-.16-.59-.43-.11-.28-.02-.53.16-.75.17-.2.41-.3.67-.32.14-.01.24.04.27.18.03.15-.07.22-.21.26-.11.03-.23.06-.33.12-.13.08-.2.23-.13.36.05.09.2.12.31.17.03.01.06,0,.09,0,0,.01,0,.02,0,.03h0Z"/>
      <path class="cls-2" d="M7.43,6.97h1.3c.15,0,.27.05.27.22,0,.16-.12.21-.26.21h-2.61c-.15,0-.27-.05-.27-.22,0-.16.11-.2.26-.2.44,0,.88,0,1.31,0h0Z"/>
      <path class="cls-2" d="M7.31,8.36h1.16c.2,0,.3.08.29.22-.02.17-.14.2-.29.2h-2.34c-.19,0-.3-.08-.29-.22.01-.18.14-.2.29-.2.39,0,.79,0,1.18,0h0Z"/>
      <path class="cls-2" d="M6.79,10.15h-.71c-.14,0-.24-.06-.24-.21s.1-.21.24-.21c.47,0,.94,0,1.41,0,.15,0,.25.06.25.22,0,.15-.1.2-.24.2-.24,0-.47,0-.71,0Z"/>
    </g>
  </g>
</svg>