<?xml version="1.0" encoding="UTF-8"?>
<svg id="Layer_2" data-name="Layer 2" xmlns="http://www.w3.org/2000/svg" viewBox="0 0 7.63 8.9">
  <defs>
    <style>
      .cls-1 {
        fill: #136fb8;
        stroke-width: 0px;
      }
    </style>
  </defs>
  <g id="OBJECTS">
    <path class="cls-1" d="M3.14,4.76c-.63.56-.95,1.2-.97,2-.01.76.24,1.45.61,2.14-.63-.1-1.15-.33-1.6-.72C-.04,7.12-.36,5.32.44,3.91c.34-.6.72-1.18,1.11-1.82.14.26.27.5.43.78.51-.88.8-1.81.8-2.88,1.36.89,2.58,1.82,2.97,3.5.33-.22.47-.56.63-.9.38.31.63.7.84,1.12.92,1.91.25,4.03-1.6,5.07-.19.11-.32.11-.5-.03-1.22-.96-1.92-2.19-1.96-3.77,0-.06,0-.11-.02-.23h0Z"/>
  </g>
</svg>