<?xml version="1.0" encoding="UTF-8"?>
<svg id="Layer_2" data-name="Layer 2" xmlns="http://www.w3.org/2000/svg" xmlns:xlink="http://www.w3.org/1999/xlink" viewBox="0 0 15.8 15.8">
  <defs>
    <style>
      .cls-1 {
        fill: url(#linear-gradient);
      }

      .cls-1, .cls-2 {
        stroke-width: 0px;
      }

      .cls-2 {
        fill: #fff;
      }
    </style>
    <linearGradient id="linear-gradient" x1="0" y1="7.9" x2="15.8" y2="7.9" gradientUnits="userSpaceOnUse">
      <stop offset="0" stop-color="#be6e5a"/>
      <stop offset="1" stop-color="#925042"/>
    </linearGradient>
  </defs>
  <g id="OBJECTS">
    <g>
      <circle class="cls-1" cx="7.9" cy="7.9" r="7.9"/>
      <path class="cls-2" d="M2.53,4.54c.11-.19.28-.22.48-.21.35,0,.71,0,1.06,0,.51,0,.84.24,1.01.72.1.28.2.55.29.83.03.08.06.11.15.11,2.16,0,4.32,0,6.48,0,.03,0,.05,0,.08,0,.26,0,.4.2.31.44-.2.57-.4,1.15-.6,1.72-.13.38-.27.76-.4,1.15-.15.44-.5.69-.96.69-1.1,0-2.19,0-3.29,0-.25,0-.41.21-.34.43.04.13.17.22.32.22.19,0,.37,0,.56,0,1.23,0,2.46,0,3.69,0,.18,0,.3.09.33.25.04.18-.1.36-.3.37-.13,0-.25,0-.41,0,.23.19.34.4.33.68,0,.22-.09.4-.25.55-.31.29-.79.29-1.1-.01-.26-.25-.39-.8.08-1.21h-1.9c.23.2.34.44.32.73-.02.2-.11.37-.26.51-.31.28-.79.26-1.09-.04-.33-.33-.3-.78.09-1.2-.12,0-.24,0-.36-.04-.57-.16-.85-.79-.6-1.32.03-.06.03-.09-.03-.13-.16-.12-.26-.28-.33-.47-.47-1.35-.94-2.69-1.4-4.04-.09-.25-.18-.32-.45-.32-.38,0-.76,0-1.14,0-.19,0-.31-.07-.38-.24v-.17ZM8.75,6.61c-.3,0-.59,0-.89,0-.03,0-.08-.03-.08.05.01.13.02.27.03.4,0,.05.02.07.07.07.57,0,1.14,0,1.71,0,.05,0,.07-.01.07-.06,0-.12.02-.25.03-.37,0-.07-.01-.08-.08-.08-.29,0-.58,0-.88,0ZM8.75,7.74c-.26,0-.53,0-.79,0-.05,0-.08,0-.07.07.01.12.02.24.03.37,0,.05.03.07.08.07.5,0,1,0,1.5,0,.06,0,.08-.02.08-.08,0-.11.01-.22.03-.34.01-.07-.01-.09-.08-.09-.26,0-.51,0-.77,0ZM8.76,8.85c-.23,0-.46,0-.69,0-.06,0-.08.01-.07.08.01.12.03.25.03.37,0,.05.02.07.08.07.43,0,.87,0,1.3,0,.05,0,.07-.02.08-.07,0-.12.01-.24.03-.36,0-.07,0-.08-.07-.08-.22,0-.45,0-.67,0ZM5.62,6.61c.06.17.11.32.16.47.01.04.03.05.07.05.43,0,.86,0,1.29,0,.05,0,.07-.02.06-.07-.01-.09-.02-.19-.02-.28-.01-.17,0-.17-.18-.17h-1.38ZM10.99,6.61c-.2,0-.4,0-.6,0-.04,0-.07,0-.07.05,0,.13-.02.26-.04.39,0,.05,0,.07.07.07.36,0,.72,0,1.08,0,.04,0,.06-.01.08-.05.04-.13.09-.27.14-.4.02-.06,0-.06-.05-.06-.2,0-.4,0-.61,0ZM6.64,7.74c-.19,0-.37,0-.56,0-.05,0-.07,0-.05.07.05.13.09.25.13.38.01.04.03.05.08.05.33,0,.67,0,1,0,.06,0,.07-.02.06-.07-.01-.11-.02-.22-.03-.34,0-.07-.02-.09-.1-.09-.18,0-.36,0-.54,0ZM11.28,7.74c-.34,0-.67,0-.99,0-.04,0-.06.02-.06.06,0,.13-.02.26-.03.38,0,.05.01.06.06.06.27,0,.53,0,.8,0,.03,0,.06,0,.07-.04.05-.15.1-.3.16-.46ZM7.07,9.37s0,0,0,0c.09,0,.19,0,.28,0,.04,0,.06-.01.06-.06-.01-.13-.03-.26-.04-.39,0-.04-.02-.06-.06-.06-.28,0-.57,0-.85,0-.05,0-.06.02-.04.06.03.08.05.16.09.23.06.14.17.21.31.22.08,0,.17,0,.25,0ZM10.51,8.85c-.1,0-.21,0-.31,0-.05,0-.07.02-.08.07,0,.13-.02.26-.03.39,0,.03,0,.06.04.05.43,0,.58.07.73-.44.02-.06.02-.09-.05-.08-.1,0-.2,0-.3,0Z"/>
    </g>
  </g>
</svg>