<?xml version="1.0" encoding="UTF-8"?>
<svg id="Layer_2" data-name="Layer 2" xmlns="http://www.w3.org/2000/svg" viewBox="0 0 2.43 2.58">
  <g id="OBJECTS">
    <path style="fill: #231f20; stroke-width: 0px;" d="M.07,1.69s-.04-.04-.05-.06c-.01-.02-.02-.03-.02-.05,0-.02,0-.04.03-.06s.04-.04.08-.05.06-.03.1-.04.07-.01.1-.01c.04,0,.06,0,.09.01s.04.03.07.05c.09.09.16.18.23.28.07.09.14.19.21.29.06-.17.13-.34.2-.5.07-.16.14-.32.22-.47.08-.15.16-.31.25-.46.09-.15.18-.3.29-.45.04-.06.09-.1.17-.13s.17-.04.29-.04c.03,0,.06,0,.08.02.02,0,.03.02.03.04,0,.01,0,.03-.01.04,0,.01-.02.03-.03.05-.25.35-.48.72-.69,1.11-.21.39-.39.8-.54,1.23,0,.03-.03.05-.07.07s-.1.02-.17.02c-.04,0-.07,0-.09,0-.02,0-.05,0-.06-.01-.02,0-.03-.01-.04-.02s-.02-.02-.03-.03c-.05-.08-.09-.15-.14-.22-.05-.07-.09-.13-.14-.2-.05-.06-.1-.13-.16-.19-.06-.06-.12-.13-.18-.21Z"/>
  </g>
</svg>