<?xml version="1.0" encoding="UTF-8"?>
<svg id="Layer_2" data-name="Layer 2" xmlns="http://www.w3.org/2000/svg" xmlns:xlink="http://www.w3.org/1999/xlink" viewBox="0 0 15.8 15.8">
  <defs>
    <style>
      .cls-1 {
        fill: url(#linear-gradient);
      }

      .cls-1, .cls-2 {
        stroke-width: 0px;
      }

      .cls-2 {
        fill: #fff;
      }
    </style>
    <linearGradient id="linear-gradient" x1="0" y1="7.9" x2="15.8" y2="7.9" gradientUnits="userSpaceOnUse">
      <stop offset="0" stop-color="#ffb700"/>
      <stop offset="1" stop-color="#ff9100"/>
    </linearGradient>
  </defs>
  <g id="OBJECTS">
    <circle class="cls-1" cx="7.9" cy="7.9" r="7.9"/>
    <g>
      <path class="cls-2" d="M7.9,13.26c-.72,0-1.44,0-2.15,0-.4,0-.79,0-1.19,0-.02,0-.05,0-.07,0-.06-.02-.09-.06-.1-.12,0-.01,0-.03,0-.04,0-.66,0-1.32,0-1.99,0-.61.28-1.06.81-1.37.23-.13.48-.19.74-.19.11,0,.23,0,.34-.01.06,0,.11-.01.17-.03.09-.02.14-.08.16-.17.01-.07.02-.13.03-.2.01-.16.03-.33.05-.49,0-.03,0-.04-.02-.05-.23-.21-.39-.46-.49-.75-.06-.17-.08-.34-.08-.52,0-.26,0-.53,0-.79,0-.06.02-.11.07-.15.17-.13.34-.27.49-.42.07-.07.13-.14.18-.22.05-.08.14-.09.22-.04.09.07.18.14.27.2.12.08.24.16.37.21.1.04.2.06.3.06.19,0,.38,0,.57-.01.17,0,.34-.02.5-.01.22,0,.4.09.55.26.03.03.05.06.07.1.02.04.03.08.03.13,0,.22,0,.45,0,.67,0,.51-.19.94-.56,1.29-.02.02-.03.04-.03.08.03.17.04.35.06.52,0,.06.01.11.03.17.02.07.06.12.13.15.11.03.23.04.34.04.09,0,.19,0,.28,0,.69.04,1.28.55,1.42,1.22.02.11.04.22.04.34,0,.66,0,1.32,0,1.98,0,.1-.07.17-.17.17-1.11,0-2.23,0-3.34,0ZM7.9,12.97c.68,0,1.36,0,2.04,0,.05,0,.05,0,.05-.05,0,0,0-.02,0-.02,0-.47,0-.94,0-1.41,0-.02,0-.04,0-.05,0-.07.06-.12.13-.13.07,0,.13.04.16.1,0,.02,0,.04,0,.07,0,.49,0,.97,0,1.46,0,.04,0,.04.04.04.25,0,.51,0,.76,0,.04,0,.04,0,.04-.04,0-.61,0-1.22,0-1.82,0-.07,0-.14-.02-.21-.08-.41-.3-.71-.66-.91-.2-.11-.41-.15-.63-.14-.03,0-.05.01-.07.04-.22.39-.45.77-.68,1.16-.07.12-.15.25-.22.37-.03.05-.08.08-.14.08-.05,0-.08-.02-.11-.05-.22-.22-.45-.45-.67-.67,0,0-.02-.01-.02-.02,0,0-.02-.01-.03,0,0,0-.01.01-.02.02-.22.22-.44.44-.66.66,0,0-.02.02-.03.03-.07.06-.17.05-.22-.03,0-.01-.01-.02-.02-.04-.19-.33-.39-.66-.58-.99-.1-.17-.2-.35-.3-.52-.01-.02-.02-.03-.05-.03-.03,0-.06,0-.09,0-.31,0-.58.11-.81.31-.29.25-.43.57-.43.96,0,.6,0,1.21,0,1.81,0,0,0,.02,0,.03,0,.01,0,.02.02.02.01,0,.02,0,.03,0,.25,0,.49,0,.74,0,.06,0,.05,0,.05-.05,0-.48,0-.96,0-1.43,0-.02,0-.03,0-.05,0-.08.07-.14.14-.14.08,0,.14.06.15.14,0,.02,0,.03,0,.05,0,.48,0,.96,0,1.44,0,.05,0,.04.04.04,0,0,.02,0,.03,0,.67,0,1.35,0,2.02,0ZM6.99,6.03c-.05.05-.1.1-.14.15-.14.14-.28.26-.43.38-.02.02-.03.04-.03.07,0,.22,0,.45,0,.67,0,.1,0,.2.03.3.08.39.29.7.62.92.32.22.68.3,1.06.25.31-.04.59-.16.83-.36.33-.29.51-.66.51-1.1,0-.2,0-.41,0-.61,0-.05-.02-.09-.05-.12-.02-.02-.04-.04-.06-.05-.08-.05-.17-.08-.27-.08-.27,0-.55.02-.82.03-.19,0-.38,0-.57-.06-.15-.05-.29-.13-.43-.21-.08-.05-.16-.11-.24-.17ZM8.85,8.82c-.63.34-1.26.34-1.89,0,0,.02,0,.03-.01.05-.01.13-.02.26-.04.39,0,.04,0,.06.03.09.31.31.62.61.93.92.01.01.02.03.04.03,0,0,.01,0,.02-.01.32-.32.64-.64.96-.95.02-.02.02-.03.02-.05-.01-.1-.02-.2-.03-.31,0-.05-.01-.1-.02-.16ZM9.01,9.62c-.3.3-.6.6-.9.89.2.2.39.39.58.58.25-.42.49-.84.74-1.27,0,0,0,0,0,0,0,0,0,0,0,0-.16-.02-.31-.06-.43-.2ZM7.11,11.09c.2-.2.39-.39.58-.58-.3-.3-.6-.59-.9-.89-.11.14-.26.18-.43.2.25.43.5.85.74,1.27Z"/>
      <path class="cls-2" d="M9.85,7.69c0-.27,0-.54,0-.8,0-.13.04-.23.14-.31.01,0,.02-.02.02-.03,0,0,0,0,0,0,0-.33,0-.65,0-.98,0-.4-.13-.76-.34-1.1-.02-.03-.04-.04-.07-.06-.07-.03-.13-.06-.19-.11-.29-.21-.61-.35-.95-.43-.25-.05-.5-.07-.75-.05-.48.04-.92.2-1.31.48-.07.05-.13.09-.21.12-.02,0-.03.02-.04.03-.17.25-.28.52-.33.82-.02.12-.03.24-.03.37,0,.29,0,.59,0,.88,0,.03,0,.05.03.07.08.07.12.15.12.26,0,.56,0,1.12,0,1.68,0,.19-.15.34-.34.34-.17,0-.35,0-.52,0-.16,0-.3-.11-.33-.27,0-.03-.02-.04-.04-.04-.16-.05-.31-.09-.47-.14-.09-.03-.13-.09-.13-.17,0-.37,0-.74,0-1.11,0-.09.05-.15.13-.17.16-.04.32-.09.47-.14.02,0,.03-.01.04-.04.02-.09.06-.16.14-.21.03-.02.03-.03.03-.06,0-.32,0-.64,0-.96,0-.51.15-.99.4-1.43.02-.03.02-.05.01-.09-.05-.17-.03-.33.06-.49.06-.11.14-.19.23-.26.45-.33.95-.55,1.5-.67.33-.07.67-.09,1.01-.07.75.05,1.42.29,2.03.74.13.1.23.22.28.38.04.13.04.25,0,.38,0,.02,0,.04,0,.06.17.29.29.59.36.92.04.18.06.37.06.56,0,.31,0,.61,0,.92,0,.03,0,.05.04.07.07.05.11.12.13.2,0,.03.02.04.05.05.16.05.32.09.47.14.08.02.12.07.12.16,0,.38,0,.75,0,1.13,0,.09-.04.13-.12.16-.15.05-.31.09-.46.14-.03,0-.05.02-.05.05-.03.15-.17.26-.32.26-.17,0-.34,0-.52,0-.2,0-.35-.15-.35-.35,0-.18,0-.37,0-.55,0-.09,0-.19,0-.28ZM5.61,3.86c0,.19.16.33.36.31.1-.01.19-.06.27-.12.48-.34,1.01-.52,1.6-.54.35,0,.69.05,1.02.16.26.09.5.22.72.38.06.05.13.08.21.1.15.04.3-.02.37-.16.06-.1.05-.21,0-.31-.04-.08-.1-.13-.17-.18-.57-.41-1.2-.63-1.89-.67-.35-.02-.69.01-1.03.1-.45.11-.86.3-1.23.58-.06.04-.11.09-.15.15-.04.06-.06.12-.06.19ZM5.05,7.68c0,.27,0,.54,0,.81,0,.01,0,.02,0,.03,0,.03.02.04.04.05,0,0,.02,0,.03,0,.16,0,.31,0,.47,0,0,0,.02,0,.02,0,.03,0,.05-.02.05-.05,0,0,0-.02,0-.03,0-.54,0-1.08,0-1.61,0-.01,0-.02,0-.04,0-.02-.02-.04-.04-.04-.01,0-.02,0-.03,0-.15,0-.31,0-.46,0-.01,0-.02,0-.04,0-.03,0-.04.02-.04.04,0,.01,0,.02,0,.04,0,.27,0,.53,0,.8ZM10.15,7.68c0,.27,0,.55,0,.82,0,.05.01.07.07.07.16,0,.32,0,.48,0,.05,0,.07-.02.07-.07,0-.54,0-1.09,0-1.63,0-.06-.01-.07-.07-.07-.09,0-.18,0-.27,0-.07,0-.14,0-.2,0-.06,0-.07,0-.07.07,0,0,0,.02,0,.03,0,.26,0,.52,0,.78ZM10,4.45s0,.02.01.02c.2.36.29.75.29,1.17,0,.27,0,.54,0,.81,0,.01,0,.02,0,.03,0,.02,0,.03.03.03.08,0,.15,0,.23,0,.02,0,.03,0,.02-.02,0,0,0-.02,0-.02,0-.28,0-.55,0-.83,0-.12,0-.24-.02-.35-.04-.32-.14-.63-.29-.92,0,0,0-.02-.02-.02-.07.05-.15.09-.24.11ZM5.55,4.34s-.02.03-.03.05c-.2.38-.3.79-.3,1.22,0,.29,0,.57,0,.86,0,0,0,.02,0,.02,0,.02,0,.02.02.02.08,0,.16,0,.24,0,.01,0,.02,0,.02-.02,0-.01,0-.02,0-.04,0-.27,0-.54,0-.82,0-.1,0-.21.02-.31.04-.3.12-.58.26-.84,0-.01.02-.02.01-.04-.09-.02-.17-.06-.24-.11ZM11.05,8.25s.01,0,.01,0c.1-.03.2-.06.3-.09.02,0,.02-.01.02-.03,0-.29,0-.59,0-.88,0-.02,0-.03-.03-.04-.09-.03-.18-.05-.27-.08-.01,0-.02-.01-.03,0v1.12ZM4.75,7.12c-.1.03-.2.06-.3.09-.03,0-.03.02-.03.04,0,.29,0,.58,0,.87,0,.03,0,.03.04.04.09.03.18.05.27.08,0,0,.02,0,.03,0v-1.12Z"/>
    </g>
  </g>
</svg>