<?xml version="1.0" encoding="UTF-8"?>
<svg id="Layer_2" data-name="Layer 2" xmlns="http://www.w3.org/2000/svg" xmlns:xlink="http://www.w3.org/1999/xlink" viewBox="0 0 15.8 15.8">
  <defs>
    <style>
      .cls-1 {
        fill: url(#linear-gradient);
      }

      .cls-1, .cls-2 {
        stroke-width: 0px;
      }

      .cls-2 {
        fill: #fff;
      }
    </style>
    <linearGradient id="linear-gradient" x1="0" y1="7.9" x2="15.8" y2="7.9" gradientUnits="userSpaceOnUse">
      <stop offset="0" stop-color="#30544d"/>
      <stop offset="1" stop-color="#249829"/>
    </linearGradient>
  </defs>
  <g id="OBJECTS">
    <circle class="cls-1" cx="7.9" cy="7.9" r="7.9"/>
    <g>
      <path class="cls-2" d="M4.1,10.83c0,.31,0,.61,0,.91,0,.18.13.34.3.37.13.03.26.02.39.03v-1.31h-.7ZM5.08,9.37c-.29,0-.58-.01-.86,0-.24.01-.4.2-.4.45,0,.09,0,.18,0,.27v.43h1.26v-1.16h0ZM7.76,11.22v-2.53c-.8.22-1.59.43-2.39.65,0,.4,0,.79,0,1.19,0,.02.04.05.06.06.22.06.45.13.68.19.55.15,1.09.3,1.65.45h0ZM4.52,12.43s-.1-.02-.15-.03c-.34-.09-.55-.36-.55-.73,0-.25,0-.49,0-.74v-.11s-.08,0-.11,0c-.11,0-.16-.05-.16-.17,0-.3,0-.6,0-.9.01-.37.3-.66.66-.68.31-.01.62,0,.92,0,.05,0,.1,0,.15-.02.84-.23,1.69-.46,2.53-.69.17-.05.24,0,.24.19v2.78c0,.19-.07.24-.24.19-.85-.23-1.69-.46-2.54-.69-.06-.01-.12-.01-.18-.02v1.39c0,.15-.01.17-.14.22h-.43,0Z"/>
      <path class="cls-2" d="M4.8,4.09c-.06.13-.13.24-.17.35-.05.15-.15.22-.3.22,0,0-.02,0-.03,0-.11.02-.21.03-.32.05.09.1.17.2.26.28.11.1.14.2.11.34-.03.12-.04.25-.07.39.14-.08.27-.15.4-.22.08-.05.15-.04.23,0,.13.07.26.14.4.22-.03-.16-.04-.3-.07-.45-.02-.1,0-.18.08-.25.1-.1.2-.21.31-.32-.15-.02-.29-.05-.43-.07-.1-.01-.16-.06-.2-.15-.06-.13-.12-.26-.19-.41h0ZM3.52,4.55c.06-.08.14-.09.23-.11.17-.02.35-.05.52-.08.06,0,.09-.04.12-.09.08-.18.17-.35.25-.53.03-.07.07-.13.15-.13.09,0,.13.06.16.14.08.18.17.35.25.53.03.07.07.08.13.09.2.03.39.06.59.09.07,0,.12.04.14.11.02.07-.01.12-.06.17-.15.15-.29.3-.44.44-.04.04-.05.07-.04.12.04.2.07.41.1.62.01.07.01.14-.05.18-.07.05-.13.03-.19,0-.18-.1-.36-.19-.54-.29-.05-.03-.08-.02-.13,0-.18.1-.36.2-.54.3-.06.03-.12.05-.18,0-.06-.04-.07-.11-.05-.17.03-.2.06-.4.1-.6.01-.07,0-.12-.05-.18-.17-.16-.33-.33-.49-.5v-.11Z"/>
      <path class="cls-2" d="M10.94,4.14c-.19.01-.3-.09-.35-.27-.05.08-.08.16-.14.21-.06.04-.14.04-.24.07.18.1.2.25.15.43.15-.12.29-.12.45,0-.06-.19-.02-.32.13-.44h0ZM10.04,4.81c.02-.09.03-.2.05-.31,0-.05,0-.09-.04-.13-.07-.07-.14-.14-.21-.21-.05-.05-.08-.11-.05-.17.03-.05.08-.09.14-.1.1-.03.2-.03.29-.05.03,0,.07-.04.09-.07.05-.09.09-.19.14-.28.03-.04.08-.08.13-.09.06-.02.11.03.14.09.04.09.09.18.13.27.02.05.05.08.11.09.1,0,.2.02.29.05.05.01.1.05.13.1.03.06,0,.12-.05.16-.07.07-.14.15-.21.21-.04.04-.05.08-.04.13.02.1.04.2.05.3,0,.05-.02.12-.05.16-.04.05-.11.03-.17,0-.09-.05-.18-.1-.27-.14-.03-.01-.08-.01-.11,0-.1.05-.19.1-.29.15-.11.05-.21-.02-.2-.17h0Z"/>
      <path class="cls-2" d="M8.14,6.14c.02-.06.04-.13.06-.18-.05-.04-.11-.08-.15-.11-.05.04-.11.08-.15.11.02.06.04.12.06.18h.19ZM7.61,6.41c0-.05.03-.13.03-.2,0-.04-.02-.09-.04-.12-.04-.05-.09-.09-.13-.14-.08-.1-.05-.24.07-.25.2,0,.31-.09.38-.28.04-.11.19-.11.25,0,.03.05.05.1.07.15.02.07.07.1.14.1.05,0,.11.01.16.02.12.03.16.15.08.25-.02.02-.03.04-.05.06-.12.08-.14.2-.1.33,0,.03.01.06.01.1,0,.1-.08.16-.17.13-.07-.03-.14-.07-.21-.1-.03-.01-.08-.01-.11,0-.07.03-.13.07-.19.1-.1.04-.19-.03-.19-.15h0Z"/>
      <path class="cls-2" d="M5.94,5.72v-.28c.19,0,.37.04.53.12.32.16.55.42.74.73.26.42.44,1.11.41,1.62h-.27c0-.12-.01-.24-.03-.36-.06-.51-.21-.98-.54-1.37-.22-.26-.49-.43-.85-.45Z"/>
      <path class="cls-2" d="M4.66,6.16c.26,0,.48.07.69.19.44.27.71.67.87,1.17.08.24.12.49.12.74v.08h-.26c-.02-.17-.03-.34-.07-.5-.11-.5-.33-.92-.76-1.21-.16-.1-.33-.16-.51-.17-.06,0-.09-.02-.08-.09,0-.06,0-.13,0-.21h0Z"/>
      <path class="cls-2" d="M9.32,7.61h-.27c-.05-.86.64-1.88,1.67-1.88v.29c-.4.01-.74.18-1.01.5-.26.31-.38.68-.39,1.1Z"/>
      <path class="cls-2" d="M8.75,7.9h-.27c0-.17-.05-.33-.14-.47-.09-.13-.21-.22-.37-.25-.02,0-.05-.03-.05-.06,0-.08,0-.15,0-.23.44-.05.86.47.84,1h0Z"/>
      <path class="cls-2" d="M9.74,4.28v.27c-.33.04-.53.23-.56.58h-.27c-.03-.46.41-.89.83-.86Z"/>
      <path class="cls-2" d="M9.48,8.47c-.04.11-.08.21-.11.32-.03.1-.08.15-.18.18-.11.03-.21.08-.31.12.02.12.03.24.06.35.02.09,0,.16-.06.23-.08.09-.15.18-.22.27.08.1.15.19.23.29.05.06.07.12.05.2-.02.12-.04.24-.06.36.11.04.22.09.33.13.08.03.13.08.15.16.04.11.08.23.12.34.12-.02.23-.04.34-.06.08-.02.14,0,.2.05.09.08.18.16.28.24.09-.08.18-.15.27-.23.07-.06.14-.08.22-.06.11.02.22.04.34.06.04-.12.09-.23.12-.34.03-.09.08-.14.16-.16.11-.04.21-.08.32-.12-.02-.13-.04-.25-.06-.37-.01-.07,0-.13.05-.19.08-.1.16-.19.24-.3-.08-.1-.15-.19-.23-.29-.05-.06-.07-.12-.05-.2.02-.12.04-.24.06-.36-.12-.04-.23-.09-.34-.13-.07-.03-.12-.07-.14-.15-.04-.12-.08-.23-.12-.35-.12.02-.24.04-.35.06-.08.02-.14,0-.2-.05-.09-.08-.18-.16-.28-.24-.1.08-.19.16-.27.24-.06.05-.12.07-.2.06-.12-.03-.23-.04-.35-.06h0ZM12.28,10c-.1.12-.19.24-.29.36-.02.03-.03.07-.03.11.02.13.04.26.06.38.02.1-.01.15-.11.19-.12.05-.24.09-.35.14-.03.01-.06.04-.07.07-.05.11-.08.23-.13.35-.04.12-.08.15-.21.13-.12-.02-.23-.05-.35-.06-.04,0-.09,0-.12.03-.1.07-.18.16-.28.24-.08.07-.14.07-.22,0-.1-.08-.19-.16-.28-.24-.03-.02-.08-.04-.11-.03-.11.01-.22.04-.34.06-.13.02-.18,0-.22-.13-.04-.1-.08-.21-.11-.31-.02-.06-.05-.1-.11-.11-.11-.04-.21-.08-.32-.12-.1-.04-.13-.08-.11-.19.02-.13.04-.25.06-.37.01-.06,0-.09-.04-.13-.07-.09-.14-.18-.21-.26-.09-.11-.08-.16,0-.27.07-.09.15-.18.22-.27.02-.03.03-.07.03-.11-.02-.13-.04-.26-.06-.38-.01-.11.01-.15.11-.19.11-.05.23-.08.34-.13.03-.01.07-.05.08-.09.05-.12.09-.24.13-.35.04-.1.09-.13.19-.11.12.02.24.05.36.06.03,0,.08,0,.11-.03.1-.08.18-.16.28-.24.09-.08.15-.08.24,0,.09.08.18.16.27.23.03.02.08.04.12.03.12-.01.24-.04.36-.06.1-.02.15.01.19.11.05.12.08.24.13.36.01.03.05.07.08.08.11.05.22.09.34.13.11.04.14.09.12.21-.02.12-.04.24-.06.37,0,.04,0,.09.03.12.09.13.19.24.28.37v.09h0Z"/>
      <path class="cls-2" d="M9.7,10.77c-.07-.07-.14-.13-.21-.2.47-.54.94-1.07,1.41-1.6.07.07.14.13.21.2-.47.54-.94,1.07-1.41,1.6h0Z"/>
      <path class="cls-2" d="M9.91,9.44s-.07-.07-.1-.07c-.02,0-.06.04-.06.06,0,.02.03.07.05.07.03,0,.06-.03.11-.06h0ZM10.16,9.44c0,.2-.16.36-.35.36-.19,0-.35-.17-.35-.37,0-.2.16-.36.35-.36.2,0,.35.16.35.36h0Z"/>
      <path class="cls-2" d="M10.8,10.42c.03-.05.06-.08.06-.11,0-.02-.04-.07-.06-.06-.03,0-.06.04-.07.07,0,.03.03.05.07.11h0ZM10.45,10.31c0-.2.16-.37.35-.36.19,0,.35.17.35.36,0,.2-.15.36-.35.37-.2,0-.35-.16-.35-.36Z"/>
    </g>
  </g>
</svg>