<?xml version="1.0" encoding="UTF-8"?>
<svg id="Layer_2" data-name="Layer 2" xmlns="http://www.w3.org/2000/svg" viewBox="0 0 5.72 5.84">
  <defs>
    <style>
      .cls-1 {
        fill: #fff;
        stroke-width: 0px;
      }
    </style>
  </defs>
  <g id="OBJECTS">
    <g>
      <g>
        <polygon class="cls-1" points="3.73 1.29 1.99 1.29 2.2 0 3.51 0 3.73 1.29"/>
        <polygon class="cls-1" points="1.99 4.56 3.73 4.56 3.51 5.84 2.2 5.84 1.99 4.56"/>
      </g>
      <path class="cls-1" d="M2.86.72C1.64.72.66,1.71.66,2.92s.98,2.2,2.2,2.2,2.2-.98,2.2-2.2S4.07.72,2.86.72ZM2.86,4.11c-.66,0-1.19-.53-1.19-1.19s.53-1.19,1.19-1.19,1.19.53,1.19,1.19-.53,1.19-1.19,1.19Z"/>
      <g>
        <polygon class="cls-1" points="3.73 1.29 1.99 1.29 2.2 0 3.51 0 3.73 1.29"/>
        <polygon class="cls-1" points="1.99 4.56 3.73 4.56 3.51 5.84 2.2 5.84 1.99 4.56"/>
      </g>
      <g>
        <polygon class="cls-1" points="1.88 1.35 1.01 2.86 0 2.03 .65 .89 1.88 1.35"/>
        <polygon class="cls-1" points="3.84 4.49 4.71 2.98 5.72 3.82 5.06 4.95 3.84 4.49"/>
      </g>
      <g>
        <polygon class="cls-1" points="1.01 2.98 1.88 4.49 .65 4.95 0 3.82 1.01 2.98"/>
        <polygon class="cls-1" points="4.71 2.86 3.84 1.35 5.06 .89 5.72 2.03 4.71 2.86"/>
      </g>
    </g>
  </g>
</svg>