<?xml version="1.0" encoding="UTF-8"?>
<svg id="Layer_2" data-name="Layer 2" xmlns="http://www.w3.org/2000/svg" xmlns:xlink="http://www.w3.org/1999/xlink" viewBox="0 0 15.8 15.8">
  <defs>
    <style>
      .cls-1 {
        fill: url(#linear-gradient);
      }

      .cls-1, .cls-2 {
        stroke-width: 0px;
      }

      .cls-2 {
        fill: #fff;
      }
    </style>
    <linearGradient id="linear-gradient" x1="0" y1="7.9" x2="15.8" y2="7.9" gradientUnits="userSpaceOnUse">
      <stop offset="0" stop-color="#005aa1"/>
      <stop offset="1" stop-color="#0083c9"/>
    </linearGradient>
  </defs>
  <g id="OBJECTS">
    <circle class="cls-1" cx="7.9" cy="7.9" r="7.9"/>
    <path class="cls-2" d="M7.23,8.21c-.63.56-.95,1.2-.97,2-.01.76.24,1.45.61,2.14-.63-.1-1.15-.33-1.6-.72-1.22-1.06-1.54-2.85-.74-4.27.34-.6.72-1.18,1.11-1.82.14.26.27.5.43.78.51-.88.8-1.81.8-2.88,1.36.89,2.58,1.82,2.97,3.5.33-.22.47-.56.63-.9.38.31.63.7.84,1.12.92,1.91.25,4.03-1.6,5.07-.19.11-.32.11-.5-.03-1.22-.96-1.92-2.19-1.96-3.77,0-.06,0-.11-.02-.23h0Z"/>
  </g>
</svg>