<?xml version="1.0" encoding="UTF-8"?>
<svg id="Layer_2" data-name="Layer 2" xmlns="http://www.w3.org/2000/svg" xmlns:xlink="http://www.w3.org/1999/xlink" viewBox="0 0 15.8 15.8">
  <defs>
    <style>
      .cls-1 {
        fill: url(#linear-gradient);
      }

      .cls-1, .cls-2 {
        stroke-width: 0px;
      }

      .cls-2 {
        fill: #fff;
      }
    </style>
    <linearGradient id="linear-gradient" x1="0" y1="7.9" x2="15.8" y2="7.9" gradientUnits="userSpaceOnUse">
      <stop offset="0" stop-color="#005aa1"/>
      <stop offset="1" stop-color="#0083c9"/>
    </linearGradient>
  </defs>
  <g id="OBJECTS">
    <g>
      <circle class="cls-1" cx="7.9" cy="7.9" r="7.9"/>
      <g>
        <path class="cls-2" d="M5.11,6.96c.03-.19.07-.38.1-.56,0-.04-.03-.08-.06-.12-.04-.07-.02-.26.04-.3.01,0,.03-.01.05-.01.1,0,.2,0,.31,0,.02,0,.05.03.06.05.02.05.04.1.05.15,0,.03,0,.07-.01.09-.07.09-.08.18-.06.28.03.14.06.29.1.44.01-.03.03-.06.04-.09.09-.29.19-.58.28-.87.04-.12.05-.13.19-.12.14.01.28.02.42.04.12.02.24.06.36.11.2.08.4.17.6.24.15.05.3.03.45,0,.26-.07.52-.14.78-.21.05-.01.11-.03.16-.03.22-.02.4.1.45.31.05.22-.04.42-.26.5-.44.17-.9.3-1.37.34-.12.01-.24-.02-.36-.05-.23-.07-.46-.16-.69-.24-.03,0-.05-.02-.08-.03,0,.04-.01.06-.02.09-.09.94-.19,1.89-.28,2.83-.05.48-.08.95-.12,1.43-.03.36-.26.61-.62.64-.17.01-.35.01-.52,0-.29-.03-.52-.28-.55-.59-.04-.49-.08-.97-.12-1.46-.03-.35-.1-.68-.28-.99-.15-.27-.27-.57-.31-.88,0-.06,0-.12,0-.18,0-.34,0-.67,0-1.01,0-.45.36-.82.8-.85.07,0,.1.03.12.09.1.3.19.61.29.91,0,.03.02.05.03.08,0,0,.01,0,.02,0h0Z"/>
        <path class="cls-2" d="M11.62,4.84v.12c0,1.18,0,2.36,0,3.54,0,.42-.27.7-.56.76-.07.01-.14.02-.21.02-.36,0-.72,0-1.07,0-.03,0-.06,0-.11,0,0,.11,0,.2,0,.3,0,.02.02.04.04.05.11.06.15.14.13.25-.02.1-.09.14-.21.14-.05,0-.1,0-.17,0,.03.04.06.07.08.09.26.26.52.52.78.78.04.04.08.09.1.14.04.08.03.17-.04.23-.06.06-.15.08-.23.04-.05-.02-.09-.06-.13-.09-.32-.32-.64-.63-.95-.95-.03-.03-.07-.07-.1-.11-.05.05-.09.1-.13.14-.31.31-.61.61-.92.92-.04.04-.08.07-.13.1-.08.04-.17.03-.23-.03-.07-.06-.08-.15-.04-.23.03-.05.06-.1.1-.14.26-.26.53-.53.79-.79.02-.02.04-.04.08-.08-.08,0-.13,0-.19,0-.11,0-.18-.05-.2-.13-.03-.11.01-.2.11-.25.04-.02.05-.04.06-.09,0-.28.01-.27-.27-.27-.31,0-.63,0-.94,0-.1,0-.19-.03-.29-.05-.07-.01-.08-.05-.07-.12.02-.14.03-.28.05-.44.05.15.16.18.29.18,1.28,0,2.56,0,3.84,0,.23,0,.3-.07.3-.3,0-1.21,0-2.41,0-3.62,0-.03,0-.05,0-.09h-4.43v.79c-.14-.01-.27-.02-.39-.04-.01,0-.04-.03-.03-.04,0-.06,0-.13.04-.19.15-.27.18-.56.11-.85,0-.02-.01-.05-.02-.07,0,0,0-.01,0-.02h2.29c0-.07,0-.14,0-.21.01-.17.09-.25.24-.25.14,0,.21.1.21.26,0,.06,0,.12,0,.2h.11c.8,0,1.6,0,2.41,0,.14,0,.24.07.25.19.01.12-.07.22-.21.23-.04,0-.09,0-.14,0h0Z"/>
        <path class="cls-2" d="M5.39,5.64c-.47,0-.84-.37-.84-.84,0-.46.39-.85.85-.84.46,0,.84.39.83.85,0,.47-.37.83-.84.83h0Z"/>
      </g>
    </g>
  </g>
</svg>