<?xml version="1.0" encoding="UTF-8"?>
<svg id="Layer_2" data-name="Layer 2" xmlns="http://www.w3.org/2000/svg" viewBox="0 0 5.56 5.56">
  <defs>
    <style>
      .cls-1 {
        fill: #828282;
        stroke-width: 0px;
      }
    </style>
  </defs>
  <g id="OBJECTS">
    <g>
      <path class="cls-1" d="M4.29,4.03c.05.04.09.06.12.09.35.35.71.7,1.05,1.06.05.05.08.13.09.19,0,.08-.04.14-.12.17-.08.04-.16.02-.23-.04-.12-.12-.24-.24-.36-.36C3.27,3.56,1.68,1.98.1.39.04.33-.01.27,0,.18.01.1.06.04.13.01c.09-.04.17,0,.24.07.4.4.79.79,1.19,1.19.07.07.12.09.22.05,1.39-.46,2.94.09,3.73,1.32.06.1.06.18,0,.28-.28.42-.63.76-1.06,1.02-.04.02-.08.05-.15.09ZM3.66,3.35c.29-.36.22-.99-.16-1.34-.44-.42-1.06-.32-1.29-.11.48.48.96.96,1.45,1.45Z"/>
      <path class="cls-1" d="M.89,1.78c.2.2.39.39.58.58.01.01.03.03.04.04.14.12.21.25.22.45.03.61.53,1.02,1.14.99.03,0,.07,0,.09.02.16.15.31.31.47.47-.03.01-.05.02-.07.03-1.28.24-2.61-.33-3.31-1.43-.06-.1-.06-.17,0-.27.22-.34.56-.7.84-.87Z"/>
    </g>
  </g>
</svg>