<?xml version="1.0" encoding="UTF-8"?>
<svg id="Layer_2" data-name="Layer 2" xmlns="http://www.w3.org/2000/svg" xmlns:xlink="http://www.w3.org/1999/xlink" viewBox="0 0 15.8 15.8">
  <defs>
    <style>
      .cls-1 {
        fill: url(#linear-gradient);
      }

      .cls-1, .cls-2 {
        stroke-width: 0px;
      }

      .cls-2 {
        fill: #fff;
      }
    </style>
    <linearGradient id="linear-gradient" x1="0" y1="7.9" x2="15.8" y2="7.9" gradientUnits="userSpaceOnUse">
      <stop offset="0" stop-color="#008b8b"/>
      <stop offset="1" stop-color="#1c5870"/>
    </linearGradient>
  </defs>
  <g id="OBJECTS">
    <circle class="cls-1" cx="7.9" cy="7.9" r="7.9"/>
    <g>
      <g>
        <polygon class="cls-2" points="9.28 5.32 6.53 5.32 6.87 3.29 8.93 3.29 9.28 5.32"/>
        <polygon class="cls-2" points="6.53 10.48 9.28 10.48 8.93 12.51 6.87 12.51 6.53 10.48"/>
      </g>
      <path class="cls-2" d="M7.9,4.43c-1.92,0-3.47,1.55-3.47,3.47s1.55,3.47,3.47,3.47,3.47-1.55,3.47-3.47-1.55-3.47-3.47-3.47ZM7.9,9.78c-1.04,0-1.88-.84-1.88-1.88s.84-1.88,1.88-1.88,1.88.84,1.88,1.88-.84,1.88-1.88,1.88Z"/>
      <g>
        <polygon class="cls-2" points="9.28 5.32 6.53 5.32 6.87 3.29 8.93 3.29 9.28 5.32"/>
        <polygon class="cls-2" points="6.53 10.48 9.28 10.48 8.93 12.51 6.87 12.51 6.53 10.48"/>
      </g>
      <g>
        <polygon class="cls-2" points="6.36 5.42 4.98 7.8 3.39 6.49 4.43 4.7 6.36 5.42"/>
        <polygon class="cls-2" points="9.45 10.38 10.82 8 12.41 9.31 11.38 11.1 9.45 10.38"/>
      </g>
      <g>
        <polygon class="cls-2" points="4.98 8 6.36 10.38 4.43 11.1 3.39 9.31 4.98 8"/>
        <polygon class="cls-2" points="10.82 7.8 9.45 5.42 11.38 4.7 12.41 6.49 10.82 7.8"/>
      </g>
    </g>
  </g>
</svg>