<?xml version="1.0" encoding="UTF-8"?>
<svg id="Layer_2" data-name="Layer 2" xmlns="http://www.w3.org/2000/svg" viewBox="0 0 7.13 8.9">
  <defs>
    <style>
      .cls-1 {
        fill: #136fb8;
        stroke-width: 0px;
      }
    </style>
  </defs>
  <g id="OBJECTS">
    <g>
      <path class="cls-1" d="M4.01,1.2s.02-.09.02-.13l-.8-.16s-.02.09-.02.13c.27.05.53.1.8.16h0ZM2.17,8.27h.16c.1-.14.28-.28.3-.44.03-.22-.13-.38-.37-.39-.24,0-.41.16-.38.38.02.16.19.3.29.45ZM5.37,4.49c-.14.02-.27.03-.42.06.14-.71.25-1.39.4-2.06.07-.32.03-.45-.33-.51-1.13-.19-2.26-.43-3.43-.66-.35,1.81-.7,3.6-1.05,5.44.59.12,1.15.21,1.71.35.19.05.4.16.54.29.45.44.87.91,1.35,1.42-.2,0-.33.02-.45,0-.95-.18-1.91-.36-2.86-.55-.71-.14-.92-.45-.79-1.15C.42,5.1.82,3.07,1.21,1.05c.01-.08.03-.16.04-.23C1.38.14,1.7-.09,2.38.03c.95.18,1.91.36,2.86.55.55.11.79.46.69,1.01-.18.97-.37,1.93-.55,2.9h0Z"/>
      <path class="cls-1" d="M3.72,6.59c-.03-.1-.05-.21-.08-.31-.22-.68-.44-1.36-.66-2.03-.09-.26-.1-.49.2-.59.3-.1.43.1.51.36.11.36.24.71.34,1.03.17-.08.33-.22.48-.21.14.01.27.19.4.3.12-.05.29-.2.44-.17.15.02.28.21.39.3.14-.06.32-.2.46-.18.13.02.27.22.32.37.21.55.39,1.11.56,1.67.06.2.07.43.02.63-.17.62-.64.95-1.24,1.08-.55.13-1.07.08-1.49-.38-.55-.6-1.12-1.19-1.67-1.78-.12-.13-.25-.27-.09-.43.16-.17.35-.13.52.01s.33.28.49.42c.04-.03.07-.06.11-.08h0Z"/>
      <path class="cls-1" d="M4.47,4.38c-.07-.17-.17-.32-.2-.49-.1-.44-.4-.76-.82-.84-.38-.07-.81.12-1.02.47-.23.37-.18.79.09,1.17.1.13.13.3.22.51-.62-.17-.95-.9-.76-1.54.21-.72.97-1.13,1.68-.92.71.21,1.11.94.81,1.65h0Z"/>
    </g>
  </g>
</svg>