<?xml version="1.0" encoding="UTF-8"?>
<svg id="Layer_2" data-name="Layer 2" xmlns="http://www.w3.org/2000/svg" viewBox="0 0 2.8 4.1">
  <defs>
    <style>
      .cls-1 {
        fill: #fff;
        stroke-width: 0px;
      }
    </style>
  </defs>
  <g id="OBJECTS">
    <path class="cls-1" d="M1.4,4.1c-.1-.16-.19-.31-.28-.46-.27-.44-.53-.89-.8-1.33C.17,2.07.06,1.81.01,1.53c-.03-.19,0-.38.06-.57C.25.46.6.14,1.13.03c.55-.11,1.01.07,1.37.5.21.25.3.55.3.87,0,.16-.05.32-.1.47-.07.22-.19.41-.31.61-.29.47-.57.94-.86,1.41-.04.07-.08.13-.13.21ZM1.39.74c-.35,0-.65.29-.66.65,0,.36.29.66.64.66.37,0,.66-.28.67-.64,0-.37-.28-.67-.66-.67Z"/>
  </g>
</svg>