<?xml version="1.0" encoding="UTF-8"?>
<svg id="Layer_2" data-name="Layer 2" xmlns="http://www.w3.org/2000/svg" xmlns:xlink="http://www.w3.org/1999/xlink" viewBox="0 0 3.48 2.18">
  <defs>
    <style>
      .cls-1 {
        fill: url(#linear-gradient);
        stroke-width: 0px;
      }
    </style>
    <linearGradient id="linear-gradient" x1="0" y1="1.09" x2="3.48" y2="1.09" gradientUnits="userSpaceOnUse">
      <stop offset="0" stop-color="#005aa1"/>
      <stop offset="1" stop-color="#0083c9"/>
    </linearGradient>
  </defs>
  <g id="OBJECTS">
    <path class="cls-1" d="M.39,0h.07s.07.05.1.08c.38.38.75.76,1.13,1.13.02.02.03.03.05.05.02-.02.04-.03.05-.05.38-.38.75-.76,1.13-1.13.03-.03.07-.05.1-.08h.07c.13.13.26.26.39.4v.07s-.05.07-.08.1l-1.52,1.53s-.07.06-.1.08h-.07s-.06-.04-.09-.07C1.11,1.6.59,1.08.08.57c-.03-.03-.05-.07-.08-.1v-.07c.13-.13.26-.26.39-.4Z"/>
  </g>
</svg>