<?xml version="1.0" encoding="UTF-8"?>
<svg id="Layer_2" data-name="Layer 2" xmlns="http://www.w3.org/2000/svg" viewBox="0 0 9.67 9.67">
  <defs>
    <style>
      .cls-1 {
        fill: #fff;
        stroke-width: 0px;
      }
    </style>
  </defs>
  <g id="OBJECTS">
    <g>
      <path class="cls-1" d="M8.94,6.12c-.09.29-.21.56-.36.83-.15.27-.33.52-.54.74-.21.23-.44.44-.7.62-.27.19-.55.35-.85.47-.23.1-.46.17-.7.22-.18.04-.35.07-.53.09-.23.02-.46.03-.68.01-.29-.02-.57-.06-.85-.14-.3-.08-.58-.19-.86-.33-.29-.15-.57-.34-.82-.55-.27-.23-.51-.49-.72-.78-.2-.28-.37-.59-.49-.91-.09-.21-.15-.43-.2-.66-.03-.15-.06-.3-.07-.45-.03-.22-.03-.44-.02-.66.01-.27.05-.54.12-.8.06-.26.15-.52.27-.76.17-.37.39-.71.65-1.02.2-.23.42-.44.67-.62.27-.2.55-.37.85-.5.23-.1.47-.19.72-.25.22-.05.44-.09.66-.11.21-.02.42-.02.63,0,.2.01.4.04.59.08.35.07.68.18,1,.34.32.16.62.35.89.57.4.33.72.72.98,1.17.18.31.31.64.41.98.05.17.08.34.11.52.03.22.05.45.04.67,0,.14-.01.27-.03.41-.03.28-.09.55-.17.82h0ZM4.78,0C2.13.03,0,2.2,0,4.83c0,2.7,2.22,4.89,4.92,4.84,2.63-.05,4.79-2.21,4.75-4.91C9.62,2.1,7.44-.03,4.78,0Z"/>
      <path class="cls-1" d="M7.12,4.72c-.05-.05-.11-.09-.18-.12-.03-.01-.05-.03-.07-.04-.19-.12-.39-.24-.58-.36-.27-.17-.53-.33-.8-.49-.27-.17-.55-.34-.82-.51-.27-.17-.54-.34-.82-.5-.02-.01-.04-.02-.07-.02-.1,0-.2.05-.27.12-.13.11-.19.26-.2.43v3.41c0,.08.02.16.05.23.07.15.18.26.34.31.02-.01.04-.02.06-.03.17-.1.33-.2.5-.3.3-.18.6-.36.91-.54.26-.16.52-.31.79-.47.32-.19.64-.38.96-.57.08-.05.15-.1.21-.16.03-.04.06-.07.08-.12.03-.06.02-.13-.01-.19-.02-.03-.04-.06-.07-.09h0Z"/>
    </g>
  </g>
</svg>