<?xml version="1.0" encoding="UTF-8"?>
<svg id="Layer_2" data-name="Layer 2" xmlns="http://www.w3.org/2000/svg" xmlns:xlink="http://www.w3.org/1999/xlink" viewBox="0 0 15.8 15.8">
  <defs>
    <style>
      .cls-1 {
        fill: url(#linear-gradient);
      }

      .cls-1, .cls-2 {
        stroke-width: 0px;
      }

      .cls-2 {
        fill: #fff;
      }
    </style>
    <linearGradient id="linear-gradient" x1="0" y1="7.9" x2="15.8" y2="7.9" gradientUnits="userSpaceOnUse">
      <stop offset="0" stop-color="#425aa1"/>
      <stop offset="1" stop-color="#839ec9"/>
    </linearGradient>
  </defs>
  <g id="OBJECTS">
    <circle class="cls-1" cx="7.9" cy="7.9" r="7.9"/>
    <g>
      <path class="cls-2" d="M4.2,6.14c0,.91,0,1.81,0,2.7,0,.72-.07.71.7.7.8,0,1.61,0,2.41,0h.29v.51c-.08,0-.16.01-.25.01-.93,0-1.87,0-2.8,0-.59,0-.89-.29-.89-.89,0-1.28,0-2.56,0-3.84,0-.61.29-.89.91-.89h.47c0,.2,0,.38,0,.56,0,.25.16.41.37.42.21,0,.36-.16.36-.41,0-.18,0-.36,0-.55h2.41c0,.2,0,.39,0,.57,0,.23.16.39.36.39.2,0,.35-.16.36-.39,0-.18,0-.36,0-.59.28.02.56,0,.82.05.3.06.51.27.53.57.03.77,0,1.54,0,2.33h-.5v-1.24h-5.57Z"/>
      <path class="cls-2" d="M10.07,11.36c.85,0,1.54-.69,1.53-1.53,0-.83-.68-1.51-1.52-1.52-.85,0-1.54.69-1.54,1.55,0,.83.68,1.5,1.53,1.5h0ZM10.07,7.79c1.14,0,2.06.92,2.06,2.05,0,1.14-.94,2.07-2.08,2.06-1.14-.01-2.06-.94-2.05-2.06,0-1.13.93-2.04,2.07-2.04Z"/>
      <rect class="cls-2" x="4.92" y="8.03" width=".97" height=".98"/>
      <rect class="cls-2" x="4.92" y="6.57" width=".97" height=".95"/>
      <rect class="cls-2" x="6.5" y="8.04" width=".96" height=".97"/>
      <rect class="cls-2" x="6.51" y="6.57" width=".97" height=".96"/>
      <rect class="cls-2" x="8.1" y="6.57" width=".97" height=".96"/>
      <path class="cls-2" d="M5.66,4.58c0,.15,0,.29,0,.44,0,.16-.09.29-.25.26-.09-.02-.22-.15-.23-.24-.03-.29-.03-.59,0-.87,0-.09.13-.23.23-.25.16-.03.25.09.25.25,0,.14,0,.27,0,.41h0Z"/>
      <path class="cls-2" d="M8.3,4.6c0-.15-.03-.3,0-.44.03-.1.15-.17.23-.26.08.08.23.16.24.25.03.3.03.6,0,.9,0,.09-.16.16-.24.24-.08-.09-.2-.16-.23-.26-.04-.13,0-.29,0-.44h0Z"/>
      <path class="cls-2" d="M9.75,10.14c.36-.36.69-.68,1-1.01.11-.12.2-.19.35-.04.14.15.11.24-.02.36-.39.38-.77.76-1.15,1.15-.12.12-.2.12-.32,0-.19-.21-.4-.41-.6-.6-.13-.12-.1-.21.01-.32.11-.11.2-.14.32,0,.13.15.26.3.41.47h0Z"/>
    </g>
  </g>
</svg>