<?xml version="1.0" encoding="UTF-8"?>
<svg id="Layer_2" data-name="Layer 2" xmlns="http://www.w3.org/2000/svg" viewBox="0 0 3.37 3.75">
  <defs>
    <style>
      .cls-1 {
        fill: #fff;
        stroke-width: 0px;
      }
    </style>
  </defs>
  <g id="OBJECTS">
    <path class="cls-1" d="M1.48.26c-.3,0-.58.11-.81.3C.21.94.1,1.6.41,2.11c.37.61,1.19.78,1.78.38.43-.29.63-.82.5-1.32-.15-.54-.64-.91-1.21-.91h0ZM0,1.46c0-.05,0-.11.01-.16.03-.27.13-.52.31-.74C.54.29.82.11,1.15.04c.74-.17,1.48.24,1.72.96.19.55.07,1.06-.31,1.5,0,0-.01.01-.02.02,0,0,0,0,0,0,.03.03.05.06.08.09.21.24.41.48.62.72.06.07.11.15.13.24,0,.02,0,.05,0,.07,0,.08-.06.12-.14.1-.06-.02-.11-.05-.16-.1-.07-.08-.14-.16-.21-.24-.16-.19-.33-.38-.49-.57-.03-.04-.06-.08-.08-.11-.02.01-.04.03-.07.04-.27.15-.56.22-.86.19-.63-.06-1.14-.49-1.3-1.1-.03-.1-.04-.2-.05-.31,0-.02,0-.03,0-.05v-.04h0Z"/>
  </g>
</svg>