<?xml version="1.0" encoding="UTF-8"?>
<svg id="Layer_2" data-name="Layer 2" xmlns="http://www.w3.org/2000/svg" viewBox="0 0 33.46 8.97">
<g id="OBJECTS">
  <g>
    <rect width="33.46" height="8.97" rx="1.04" ry="1.04" fill="#1c65bc" stroke-width="0"/>
    <path fill="#fefefe" stroke-width="0" d="M6.69,6.53c0-.36,0-.72,0-1.07,0-.02,0-.03.03-.03.23,0,.45,0,.68,0,.02,0,.03,0,.04-.03.03-.22.07-.45.1-.67,0-.06.02-.13.03-.19,0-.02,0-.03-.02-.03-.27,0-.55,0-.82,0-.02,0-.03,0-.03-.03,0-.2,0-.4,0-.6,0-.14.05-.26.16-.35.07-.06.16-.09.26-.1.13-.01.25,0,.38,0,.03,0,.06,0,.1,0,.02,0,.02,0,.02-.02,0-.14,0-.28,0-.41,0-.11,0-.21,0-.32,0-.02,0-.02-.02-.03-.25-.04-.51-.07-.76-.06-.26,0-.5.08-.7.24-.2.15-.31.36-.37.6-.03.12-.04.24-.04.36,0,.23,0,.46,0,.7,0,.02,0,.03-.03.03-.25,0-.5,0-.74,0-.02,0-.03,0-.03.03,0,.29,0,.57,0,.86,0,.02,0,.03.03.03.25,0,.5,0,.75,0,.02,0,.03,0,.03.03,0,.72,0,1.44,0,2.15,0,.02,0,.03-.03.03-1.27-.21-2.29-1.18-2.56-2.42-.25-1.1.1-2.24.93-3.01.46-.43,1.01-.71,1.64-.81,1.04-.16,1.95.12,2.71.85.5.47.81,1.05.92,1.73.17,1.05-.11,1.97-.85,2.75-.48.5-1.06.8-1.74.91-.02,0-.03,0-.03-.02,0-.36,0-.72,0-1.08Z"/>
    <text fill="#fff" font-family="Roboto-Regular, Roboto" font-size="4px" transform="translate(10.75 5.84)">
      <tspan x="0" y="0" letter-spacing="-.02em">F</tspan>
      <tspan x="2.14" y="0">acebook</tspan>
    </text>
  </g>
</g>
</svg>