<?xml version="1.0" encoding="UTF-8"?>
<svg id="Layer_2" data-name="Layer 2" xmlns="http://www.w3.org/2000/svg" xmlns:xlink="http://www.w3.org/1999/xlink" viewBox="0 0 15.8 15.8">
  <defs>
    <style>
      .cls-1 {
        fill: url(#linear-gradient);
      }

      .cls-1, .cls-2 {
        stroke-width: 0px;
      }

      .cls-2 {
        fill: #fff;
      }
    </style>
    <linearGradient id="linear-gradient" x1="0" y1="7.9" x2="15.8" y2="7.9" gradientUnits="userSpaceOnUse">
      <stop offset="0" stop-color="#e56a7c"/>
      <stop offset="1" stop-color="#e74e78"/>
    </linearGradient>
  </defs>
  <g id="OBJECTS">
    <circle class="cls-1" cx="7.9" cy="7.9" r="7.9"/>
    <g>
      <path class="cls-2" d="M10.87,7.91c0,.84,0,1.69,0,2.53,0,.27-.15.43-.43.42-.08,0-.19.04-.25-.01-.06-.06-.02-.17-.02-.25,0-.23,0-.47,0-.7,0-.17-.06-.32-.18-.44-.34-.35-.28-.2-.28-.68,0-.01,0-.02,0-.03-.02-.14.01-.23.16-.3.26-.13.36-.44.28-.7-.07-.23-.3-.47-.66-.45-.26.02-.49.21-.56.48-.07.3.08.6.38.72.06.02.07.05.07.11,0,.15,0,.3,0,.46,0,.16.06.29.17.41.35.36.29.22.3.73,0,.19,0,.38,0,.57,0,.08-.02.11-.1.11-.75,0-1.49,0-2.24,0-.72,0-1.44,0-2.15,0-.25,0-.41-.15-.41-.41,0-.07,0-.14,0-.2,0-.06.02-.08.08-.08.36,0,.73,0,1.09,0,.2,0,.37-.05.5-.21.12-.14.26-.2.44-.19.18.01.35,0,.53,0,.08,0,.12.02.15.09.12.27.35.37.58.37.27,0,.51-.19.58-.44.1-.32-.06-.66-.38-.78-.31-.12-.67.04-.79.35-.02.06-.05.08-.11.08-.23,0-.45,0-.68,0-.17,0-.31.06-.43.18-.03.03-.07.07-.1.1-.07.08-.15.11-.25.11-.36,0-.73,0-1.09,0-.07,0-.1-.01-.1-.1,0-.29,0-.59,0-.88,0-.08.02-.1.1-.1.78,0,1.57,0,2.35,0,.18,0,.33-.06.45-.19.12-.11.23-.23.35-.34.13-.13.19-.28.19-.45,0-.41-.05-.3.26-.61.04-.04.08-.07.11-.11.15-.2.34-.26.59-.24.17.02.34,0,.51,0,.2.01.34-.17.34-.34,0-.46,0-.93,0-1.39,0-.14,0-.14.15-.14.07,0,.15,0,.22,0,.21.04.32.18.32.4,0,.85,0,1.7,0,2.55Z"/>
      <path class="cls-2" d="M6.23,8.45c-.39,0-.79,0-1.18,0-.07,0-.1,0-.1-.09,0-.3,0-.6,0-.9,0-.07.02-.09.08-.08.2,0,.4,0,.6,0,.22,0,.35-.14.35-.36,0-.29,0-.58,0-.87,0-.08.02-.09.1-.09.32,0,.64,0,.96,0,.19,0,.33-.13.33-.33,0-.23,0-.46,0-.69,0-.06.02-.08.08-.08.31,0,.62,0,.92,0,.06,0,.08.01.08.07,0,.18,0,.36,0,.54,0,.08-.04.14-.09.2-.34.34-.68.68-1.02,1.02-.03.03-.06.04-.1.02-.35-.15-.73,0-.85.35-.12.34.07.72.43.81.26.07.47,0,.64-.2.16-.19.19-.41.1-.63-.02-.06-.02-.1.03-.14.33-.33.66-.66.99-.99.14-.14.21-.3.2-.49,0-.16,0-.32,0-.48,0-.05,0-.08.07-.08.32,0,.63,0,.95,0,.05,0,.06.01.06.06,0,.48,0,.96,0,1.43,0,.07-.03.07-.08.07-.22,0-.44,0-.66,0-.18,0-.32.06-.44.18-.14.14-.28.28-.42.42-.12.12-.21.27-.19.45.03.26-.06.44-.25.61-.34.32-.23.27-.66.27-.31,0-.62,0-.92,0Z"/>
      <path class="cls-2" d="M4.95,6.15c0-.26,0-.52,0-.78,0-.26.15-.42.41-.42.53,0,1.06,0,1.58,0,.07,0,.1.01.1.09,0,.2,0,.4,0,.6,0,.07-.02.09-.08.09-.31,0-.62,0-.93,0-.2,0-.38.13-.37.37.01.29,0,.58,0,.86,0,.07-.02.09-.09.09-.18,0-.36,0-.54,0-.07,0-.09-.02-.08-.08,0-.27,0-.54,0-.81Z"/>
      <path class="cls-2" d="M4.5,6.37c0,.13,0,.26,0,.4,0,.05,0,.08-.07.08-.26,0-.51.02-.77-.01-.22-.03-.4-.23-.4-.46,0-.22.18-.43.39-.46.26-.04.52,0,.78-.02.06,0,.06.03.06.08,0,.13,0,.26,0,.4Z"/>
      <path class="cls-2" d="M6.37,11.3c.13,0,.26,0,.4,0,.05,0,.08.01.07.07,0,.26.02.51-.01.77-.02.22-.23.39-.45.4-.22,0-.43-.17-.46-.39-.04-.26,0-.53-.02-.79,0-.06.04-.06.08-.06.13,0,.26,0,.4,0Z"/>
      <path class="cls-2" d="M7.9,4.5c-.13,0-.26,0-.39,0-.06,0-.08,0-.08-.08,0-.24,0-.48,0-.72,0-.23.23-.44.47-.44.24,0,.46.21.47.44,0,.24,0,.48,0,.72,0,.07-.03.08-.08.08-.13,0-.26,0-.39,0Z"/>
      <path class="cls-2" d="M4.5,7.9c0,.13,0,.26,0,.4,0,.05-.02.07-.07.07-.24,0-.49,0-.73,0-.23,0-.44-.23-.44-.47,0-.24.2-.46.43-.46.24,0,.49,0,.73,0,.06,0,.07.02.07.08,0,.13,0,.26,0,.4Z"/>
      <path class="cls-2" d="M11.3,7.9c0-.14,0-.27,0-.41,0-.05.01-.07.06-.07.25,0,.5,0,.75,0,.23,0,.43.24.42.47,0,.24-.21.46-.45.46-.24,0-.47,0-.71,0-.06,0-.08-.02-.08-.08,0-.13,0-.26,0-.39Z"/>
      <path class="cls-2" d="M8.37,11.76c-.01.12.02.28-.02.43-.07.27-.33.37-.5.34-.25-.03-.42-.23-.42-.47,0-.23,0-.45,0-.68,0-.06.01-.08.08-.08.26,0,.52,0,.78,0,.07,0,.08.02.08.08,0,.12,0,.24,0,.38Z"/>
      <path class="cls-2" d="M9.44,11.3c.13,0,.26,0,.4,0,.04,0,.08,0,.07.06,0,.27.02.54-.02.81-.03.21-.26.39-.48.37-.23-.02-.43-.2-.44-.43,0-.25,0-.49,0-.74,0-.06.03-.07.08-.07.13,0,.26,0,.39,0Z"/>
      <path class="cls-2" d="M6.36,4.5c-.13,0-.26,0-.4,0-.05,0-.08-.01-.07-.07,0-.26-.02-.52.02-.78.03-.21.24-.39.46-.39.23,0,.44.19.45.41,0,.25,0,.51,0,.76,0,.06-.02.07-.07.07-.13,0-.26,0-.4,0Z"/>
      <path class="cls-2" d="M11.3,6.36c0-.13,0-.26,0-.39,0-.05,0-.08.06-.08.26,0,.52-.02.78.02.22.03.4.24.39.47,0,.23-.2.44-.42.45-.25,0-.49,0-.74,0-.06,0-.07-.03-.07-.08,0-.13,0-.26,0-.4Z"/>
      <path class="cls-2" d="M9.44,4.5c-.13,0-.26,0-.39,0-.06,0-.08-.02-.08-.08,0-.24,0-.49,0-.73,0-.23.21-.42.44-.43.23,0,.44.17.47.4.03.26,0,.51.02.77,0,.06-.03.07-.07.07-.13,0-.26,0-.4,0Z"/>
      <path class="cls-2" d="M4.5,9.45c0,.13,0,.26,0,.39,0,.05,0,.08-.06.08-.26,0-.52.02-.78-.02-.22-.03-.4-.25-.39-.47,0-.23.2-.44.42-.45.25,0,.49,0,.74,0,.06,0,.07.03.07.08,0,.13,0,.26,0,.4Z"/>
      <path class="cls-2" d="M11.3,9.45c0-.13,0-.26,0-.4,0-.05.01-.08.07-.08.25,0,.49,0,.74,0,.23,0,.42.21.42.45,0,.22-.17.44-.39.47-.26.03-.52,0-.78.02-.06,0-.06-.03-.06-.08,0-.13,0-.26,0-.39Z"/>
      <path class="cls-2" d="M7.29,7.37c0,.16-.15.31-.31.31-.16,0-.3-.15-.31-.31,0-.17.14-.31.32-.31.17,0,.3.14.3.3Z"/>
      <path class="cls-2" d="M9.24,7.9c0-.16.14-.3.3-.3.16,0,.31.15.31.31,0,.16-.15.31-.31.31-.17,0-.3-.15-.3-.32Z"/>
      <path class="cls-2" d="M8.31,9.32c.17,0,.31.14.31.31,0,.16-.15.3-.31.3-.17,0-.3-.13-.3-.31,0-.18.13-.3.31-.3Z"/>
    </g>
  </g>
</svg>