<?xml version="1.0" encoding="UTF-8"?>
<svg id="Layer_2" data-name="Layer 2" xmlns="http://www.w3.org/2000/svg" viewBox="0 0 33.46 8.97">
<g id="OBJECTS">
  <g>
    <rect width="33.46" height="8.97" rx="1.04" ry="1.04" fill="#ef514d" stroke-width="0"/>
    <g>
      <path fill="#fefefe" stroke-width="0" d="M7.27,4.04c.48,0,.95,0,1.43,0,.03,0,.07-.01.07.04.03.45.01.89-.1,1.33-.3,1.19-1.06,1.9-2.25,2.15-.77.16-1.51.06-2.2-.34-.9-.52-1.44-1.31-1.57-2.34-.2-1.55.71-2.73,1.78-3.24.38-.18.77-.26,1.19-.28.48-.02.93.06,1.37.24.3.13.57.3.82.5.04.03.04.05,0,.08-.23.25-.47.5-.71.74-.03.03-.06.03-.1.01-.28-.17-.57-.3-.89-.37-.6-.13-1.13.02-1.59.41-.51.43-.77,1-.71,1.67.07.82.5,1.4,1.27,1.7.58.23,1.15.18,1.69-.13.36-.2.58-.52.72-.9.02-.04.03-.08.04-.12.02-.05,0-.06-.04-.06-.29,0-.57,0-.86,0-.27,0-.54,0-.82,0-.05,0-.06-.01-.06-.06,0-.31,0-.63,0-.94,0-.06.02-.06.07-.06.48,0,.96,0,1.44,0h0Z"/>
      <path fill="#fefefe" stroke-width="0" d="M12.51,4.49c0,.12,0,.25,0,.37,0,.06-.02.07-.07.07-.25,0-.5,0-.75,0-.06,0-.08.01-.08.08,0,.26,0,.51,0,.77,0,.05-.01.06-.06.06-.26,0-.52,0-.78,0-.05,0-.06-.02-.06-.06,0-.26,0-.52,0-.78,0-.05-.01-.06-.06-.06-.26,0-.52,0-.78,0-.05,0-.06,0-.06-.06,0-.26,0-.52,0-.78,0-.05.01-.06.06-.06.26,0,.52,0,.77,0,.05,0,.07-.01.07-.07,0-.26,0-.52,0-.77,0-.05.02-.06.06-.06.26,0,.51,0,.77,0,.05,0,.06.02.06.07,0,.26,0,.52,0,.77,0,.05.01.06.06.06.26,0,.52,0,.77,0,.05,0,.07.02.07.07,0,.13,0,.26,0,.39Z"/>
    </g>
    <text fill="#fff" font-family="Roboto-Regular, Roboto" font-size="4px" transform="translate(14.23 5.84)">
      <tspan x="0" y="0">Google</tspan>
    </text>
  </g>
</g>
</svg>