<?xml version="1.0" encoding="UTF-8"?>
<svg id="Layer_2" data-name="Layer 2" xmlns="http://www.w3.org/2000/svg" viewBox="0 0 61.98 43.1">
  <g id="OBJECTS">
    <g>
      <g>
        <path style="fill: #fff; stroke-width: 0px;" d="M15.76,18.31l-.24.61h-1.87c.1-.05.16-.14.19-.26.01-.05.02-.16.02-.33v-1.85c0-.17,0-.28-.02-.33-.03-.12-.09-.2-.19-.25h.87c-.1.05-.16.14-.19.25-.01.05-.02.16-.02.33v2.06c.22.03.42.05.62.05.17,0,.31-.02.43-.06.12-.04.26-.11.41-.22"/>
        <path style="fill: #fff; stroke-width: 0px;" d="M20.01,17.39c0,.45-.16.83-.49,1.14-.33.31-.73.46-1.2.46s-.86-.15-1.19-.46c-.32-.3-.49-.68-.49-1.11s.17-.83.5-1.14c.33-.31.74-.46,1.24-.46s.86.15,1.17.45c.14.14.26.31.34.51.08.2.12.4.12.61M19.49,17.46c0-.35-.1-.66-.31-.91-.22-.27-.51-.4-.87-.4-.34,0-.61.11-.83.33-.22.22-.32.51-.32.86,0,.38.12.7.37.97.21.23.47.34.8.34s.62-.11.84-.33c.21-.22.32-.51.32-.87"/>
        <path style="fill: #fff; stroke-width: 0px;" d="M23.66,15.9l-1.22,3.15c-.21-.14-.34-.24-.41-.31-.05-.06-.11-.19-.19-.39l-.62-1.68c-.11-.31-.18-.49-.22-.56-.03-.07-.09-.14-.18-.22h.67s0,.03,0,.05c0,.06.03.19.1.37l.75,2.05.65-1.7c.09-.25.14-.42.14-.52,0-.13-.05-.22-.16-.26h.69Z"/>
        <path style="fill: #fff; stroke-width: 0px;" d="M26.69,18.32l-.21.6h-1.91c.1-.05.16-.14.19-.26.01-.06.02-.17.02-.34v-1.84c0-.17,0-.28-.02-.33-.03-.12-.09-.2-.19-.25h1.53c.07,0,.12,0,.17-.03v.53c-.08-.08-.17-.13-.26-.15-.07-.02-.17-.03-.3-.03-.19,0-.35.01-.48.03v.86h.61c.06,0,.11,0,.16-.03v.49c-.06-.08-.18-.13-.36-.13h-.41v1.09c.2.03.38.05.57.05.36,0,.66-.09.89-.26"/>
        <path style="fill: #fff; stroke-width: 0px;" d="M33.47,15.9l-.97,3.15s-.08-.05-.17-.11c-.14-.09-.23-.17-.28-.23-.04-.06-.09-.17-.15-.35l-.52-1.63-.71,2.32c-.06-.04-.13-.09-.21-.15-.12-.08-.2-.15-.24-.21-.04-.06-.09-.17-.14-.33l-.58-1.8c-.07-.22-.13-.37-.17-.45-.05-.08-.11-.15-.19-.22h.67s0,.05,0,.06c0,.05.02.12.05.22l.71,2.22.57-1.82c.05-.17.08-.3.08-.39,0-.1-.06-.2-.18-.28h.63s-.01.07-.01.09c0,.08.02.18.06.32l.67,2.07.56-1.76c.06-.2.09-.33.09-.4,0-.15-.08-.25-.25-.31h.69Z"/>
        <path style="fill: #fff; stroke-width: 0px;" d="M37.71,17.39c0,.45-.16.83-.49,1.14-.33.31-.73.46-1.2.46s-.86-.15-1.19-.46c-.32-.3-.49-.68-.49-1.11s.17-.83.5-1.14c.33-.31.74-.46,1.24-.46s.86.15,1.17.45c.14.14.26.31.34.51.08.2.12.4.12.61M37.19,17.46c0-.35-.1-.66-.31-.91-.22-.27-.51-.4-.87-.4-.34,0-.61.11-.83.33-.22.22-.32.51-.32.86,0,.38.12.7.37.97.21.23.47.34.8.34s.62-.11.84-.33c.21-.22.32-.51.32-.87"/>
        <path style="fill: #fff; stroke-width: 0px;" d="M41.48,18.92c-.23.02-.37.03-.42.03-.13,0-.24-.03-.34-.09-.09-.06-.22-.18-.37-.37-.29-.35-.56-.73-.8-1.14.51-.09.76-.31.76-.66,0-.15-.05-.27-.15-.37s-.24-.14-.4-.14c-.09,0-.2.01-.32.03v2.12c0,.17,0,.28.02.33.03.12.09.2.19.26h-.87c.1-.05.16-.14.19-.26.01-.05.02-.16.02-.33v-1.85c0-.17,0-.28-.02-.33-.03-.12-.09-.2-.19-.25h.66s.11,0,.2,0c.09,0,.16,0,.2,0,.29,0,.52.06.68.18.2.15.31.35.31.59,0,.18-.07.34-.21.48-.14.15-.32.25-.54.3.34.46.62.8.82,1.01.2.21.4.37.58.47"/>
        <path style="fill: #fff; stroke-width: 0px;" d="M44.29,18.31l-.24.61h-1.87c.1-.05.16-.14.19-.26.01-.05.02-.16.02-.33v-1.85c0-.17,0-.28-.02-.33-.03-.12-.09-.2-.19-.25h.87c-.1.05-.16.14-.19.25-.01.05-.02.16-.02.33v2.06c.22.03.42.05.62.05.17,0,.31-.02.43-.06.12-.04.26-.11.41-.22"/>
        <path style="fill: #fff; stroke-width: 0px;" d="M48.05,17.38c0,.3-.08.58-.24.83-.16.25-.37.44-.64.56-.23.1-.63.15-1.21.15h-.74c.09-.08.15-.15.17-.2.03-.08.04-.22.04-.41v-1.82c0-.17,0-.28-.02-.33-.03-.12-.09-.2-.19-.25h.46c.12,0,.22,0,.31,0,.09,0,.21,0,.36,0,.49,0,.89.13,1.19.38.34.28.51.65.51,1.11M47.55,17.43c0-.36-.11-.65-.32-.88-.21-.23-.52-.35-.92-.35-.12,0-.27.02-.43.05v2.29c.11.02.22.03.34.03.38,0,.68-.07.88-.22.3-.22.44-.53.44-.93"/>
        <path style="fill: #fff; stroke-width: 0px;" d="M46.33,22.15c-1.3.44-3.49,3.49-4.57,4.54-1.3,1.27-2.92,2.46-5.35,3.2-1.47.45-3.29.81-3.53-.03-.09-.32.2-.71,1.58-1.63.9-.6,1.65-1.01,2.9-1.55,2.61-1.12,2.41-2.96-.52-2.57-2.18.29-4.52,1.98-6.57,2.87-6.21,2.75-10.41,2.23-13.76.08,5.3,7.06,16.04,9.38,23.57,4.43,3.18-2.09,5.43-4.93,7.09-8.37.49-1.01-.19-1.18-.83-.97"/>
        <path style="fill: #fff; stroke-width: 0px;" d="M25.17,27.74s0,0,0,0c-3.26-.28-6.15-1.95-8.86-3.97-.9-.67-1.78-1.37-2.65-2.08.21.62.45,1.24.74,1.85.56,1.22,1.26,2.4,2.1,3.51.42.14.84.28,1.25.43,2.7.91,4.95,1.09,7.41.26"/>
      </g>
      <g>
        <path style="fill: #fff; stroke-width: 0px;" d="M15.36,11.97c1.3-.44,3.49-3.49,4.57-4.54,1.3-1.27,2.92-2.46,5.35-3.2,1.47-.45,3.29-.81,3.53.04.09.32-.2.71-1.58,1.63-.9.6-1.65,1.01-2.9,1.55-2.61,1.12-2.41,2.96.52,2.57,2.18-.29,4.52-1.98,6.57-2.87,6.21-2.75,10.41-2.23,13.76-.08C39.89.01,29.15-2.31,21.62,2.64c-3.18,2.09-5.43,4.93-7.09,8.37-.49,1.01.19,1.18.83.97"/>
        <path style="fill: #fff; stroke-width: 0px;" d="M36.52,6.39s0,0,0,0c3.26.28,6.14,1.95,8.85,3.97.9.67,1.78,1.37,2.65,2.08-.21-.62-.45-1.24-.74-1.85-.56-1.22-1.26-2.4-2.1-3.51-.42-.14-.84-.28-1.25-.43-2.7-.91-4.95-1.09-7.41-.26"/>
      </g>
      <g>
        <path style="fill: #fff; stroke-width: 0px;" d="M1.06,41.4v-.37h.93v1.4c-.13.03-.28.05-.44.06-.16.02-.3.02-.42.02-.32,0-.56-.04-.72-.11-.16-.07-.27-.2-.33-.39-.06-.19-.09-.47-.09-.84s.03-.65.09-.84c.06-.19.17-.32.33-.39.16-.07.4-.11.72-.11.13,0,.27,0,.43.02.16.02.3.04.41.06v.36c-.29-.04-.51-.06-.66-.06-.29,0-.49.02-.6.05-.11.03-.19.11-.23.24-.04.13-.06.35-.06.67,0,.29.02.51.05.63.03.13.1.22.19.26.1.05.25.07.48.07.19,0,.33,0,.43-.02v-.72h-.51Z"/>
        <rect style="fill: #fff; stroke-width: 0px;" x="2.74" y="39.87" width=".43" height="2.62"/>
        <path style="fill: #fff; stroke-width: 0px;" d="M5.98,39.87v1.46c0,.35-.02.6-.07.76-.05.16-.14.27-.28.34-.14.06-.36.1-.67.1s-.53-.03-.67-.1c-.14-.06-.23-.18-.28-.34-.05-.16-.07-.41-.07-.76v-1.46h.43v1.59c0,.21.01.36.03.45.02.09.07.14.15.18.08.03.22.05.41.05s.33-.02.41-.05c.08-.03.13-.09.15-.18.02-.08.03-.23.03-.45v-1.59h.43ZM4.8,39.63v-.02l.37-.53h.42v.02l-.5.53h-.3Z"/>
        <path style="fill: #fff; stroke-width: 0px;" d="M6.74,39.87h1.18c.21,0,.37.03.49.1.11.07.19.16.23.28.04.12.06.28.06.47s-.02.34-.06.46c-.04.12-.12.22-.23.29-.11.07-.28.11-.49.11h-.73v.91h-.43v-2.62ZM7.75,41.19c.16,0,.28-.01.35-.04.07-.03.12-.07.14-.13.02-.06.03-.16.03-.3s-.01-.23-.03-.29c-.02-.06-.07-.1-.14-.13s-.18-.04-.34-.04h-.58v.93h.57Z"/>
        <path style="fill: #fff; stroke-width: 0px;" d="M10.33,41.34h-.26v-.35h.26v-1.12h.86c.37,0,.63.03.79.1.15.07.25.19.29.35.04.17.06.45.06.85s-.02.69-.06.86c-.04.17-.14.28-.29.35-.15.07-.42.1-.79.1h-.86v-1.15ZM11.69,42.06c.09-.03.15-.1.18-.21.03-.11.04-.34.04-.67s-.01-.54-.04-.66c-.03-.12-.09-.19-.18-.22-.09-.03-.27-.04-.53-.04h-.39v.73h.38v.35h-.38v.76h.39c.27,0,.45-.01.54-.04"/>
        <path style="fill: #fff; stroke-width: 0px;" d="M15.28,39.51v.08c0,.11,0,.19-.03.25-.02.06-.05.11-.1.14-.05.03-.12.05-.22.06.09.09.15.21.17.38.03.16.04.42.04.76,0,.4-.02.69-.06.86-.04.17-.14.3-.29.37-.15.07-.4.11-.75.11s-.6-.04-.75-.11c-.15-.07-.24-.19-.28-.37-.04-.17-.06-.46-.06-.86s.02-.69.06-.86c.04-.17.14-.3.28-.37.15-.07.4-.11.75-.11.2,0,.36.01.48.03h.25c.07,0,.11,0,.15-.02.03-.01.05-.04.06-.07.01-.03.02-.08.02-.15v-.11h.28ZM14.74,39.38c-.01.07-.04.12-.08.15-.04.03-.11.05-.2.05-.07,0-.14,0-.21-.02-.07-.01-.15-.03-.24-.06-.06-.02-.12-.03-.18-.04-.06-.01-.11-.02-.15-.02-.05,0-.08.01-.09.03-.01.02-.02.07-.02.15h-.22c0-.12,0-.22.02-.28.01-.07.04-.12.09-.15.04-.03.11-.05.2-.05.07,0,.14,0,.21.02.07.01.15.03.24.06.06.02.12.03.18.04.06.01.11.02.15.02.05,0,.08-.01.09-.03.01-.02.02-.07.02-.15h.22c0,.12,0,.22-.02.28M14.52,42.08c.08-.03.13-.11.16-.22.02-.12.04-.35.04-.68s-.01-.56-.04-.68c-.02-.12-.08-.19-.16-.22-.08-.03-.24-.05-.47-.05s-.39.02-.47.05c-.08.03-.13.11-.16.22-.02.12-.04.35-.04.68s.01.56.04.68c.02.12.08.19.16.22.08.03.24.05.47.05s.39-.02.47-.05"/>
        <rect style="fill: #fff; stroke-width: 0px;" x="17.89" y="39.66" width=".36" height="3.44"/>
        <path style="fill: #fff; stroke-width: 0px;" d="M21.08,39.87h1.24c.25,0,.44.06.55.17.11.11.17.27.17.49,0,.18-.04.32-.11.42-.07.1-.19.17-.34.2v.02c.18.04.3.1.37.21.07.1.11.24.11.43,0,.22-.06.39-.17.51-.11.12-.3.18-.58.18h-1.24v-2.62ZM22.51,40.89c.07-.05.1-.15.1-.27,0-.1-.01-.17-.04-.22-.02-.05-.07-.09-.13-.11-.06-.02-.15-.03-.27-.03h-.67v.71h.67c.15,0,.27-.03.33-.08M22.47,42.07c.06-.02.11-.06.14-.11.03-.05.04-.13.04-.22,0-.14-.03-.24-.1-.29-.06-.05-.18-.08-.35-.08h-.69v.75h.69c.12,0,.21-.01.27-.03"/>
        <rect style="fill: #fff; stroke-width: 0px;" x="23.76" y="39.87" width=".43" height="2.62"/>
        <path style="fill: #fff; stroke-width: 0px;" d="M24.99,42.49v-2.62h1.75v.39h-1.32v.72h1.14v.39h-1.14v.74h1.32v.39h-1.75ZM25.27,39.65v-.03l.38-.52h.41l.38.52v.03h-.27l-.31-.34-.31.34h-.27ZM25.97,39v-.02l.37-.53h.42v.02l-.5.53h-.3Z"/>
        <polygon style="fill: #fff; stroke-width: 0px;" points="27.93 42.49 27.93 40.27 27.14 40.27 27.14 39.87 29.16 39.87 29.16 40.27 28.36 40.27 28.36 42.49 27.93 42.49"/>
        <path style="fill: #fff; stroke-width: 0px;" d="M32.89,39.51v.08c0,.11,0,.19-.03.25-.02.06-.05.11-.1.14-.05.03-.12.05-.22.06.09.09.15.21.17.38.03.16.04.42.04.76,0,.4-.02.69-.06.86-.04.17-.14.3-.29.37-.15.07-.4.11-.75.11s-.6-.04-.75-.11c-.15-.07-.24-.19-.28-.37-.04-.17-.06-.46-.06-.86s.02-.69.06-.86c.04-.17.14-.3.28-.37.15-.07.4-.11.75-.11.2,0,.36.01.48.03h.25c.07,0,.11,0,.15-.02.03-.01.05-.04.06-.07.01-.03.02-.08.02-.15v-.11h.28ZM32.13,42.08c.08-.03.13-.11.16-.22s.04-.35.04-.68-.01-.56-.04-.68-.08-.19-.16-.22c-.08-.03-.24-.05-.47-.05s-.39.02-.47.05c-.08.03-.13.11-.16.22-.02.12-.04.35-.04.68s.01.56.04.68c.02.12.08.19.16.22.08.03.24.05.47.05s.39-.02.47-.05"/>
        <polygon style="fill: #fff; stroke-width: 0px;" points="35.13 42.49 33.89 40.65 33.87 40.65 33.87 42.49 33.46 42.49 33.46 39.87 33.91 39.87 35.11 41.64 35.13 41.64 35.13 39.87 35.54 39.87 35.54 42.49 35.13 42.49"/>
        <rect style="fill: #fff; stroke-width: 0px;" x="38.37" y="39.66" width=".36" height="3.44"/>
        <polygon style="fill: #fff; stroke-width: 0px;" points="43.2 42.49 42.36 41.35 41.99 41.35 41.99 42.49 41.56 42.49 41.56 39.87 41.99 39.87 41.99 40.96 42.36 40.96 43.21 39.87 43.69 39.87 42.7 41.13 43.7 42.49 43.2 42.49"/>
        <polygon style="fill: #fff; stroke-width: 0px;" points="45.87 42.49 45.87 41.37 44.65 41.37 44.65 42.49 44.22 42.49 44.22 39.87 44.65 39.87 44.65 40.97 45.87 40.97 45.87 39.87 46.3 39.87 46.3 42.49 45.87 42.49"/>
        <path style="fill: #fff; stroke-width: 0px;" d="M48.83,42.49l-.23-.63h-1.11l-.22.63h-.43l.94-2.62h.56l.94,2.62h-.44ZM48.05,40.3h-.02l-.42,1.17h.86l-.42-1.17Z"/>
        <rect style="fill: #fff; stroke-width: 0px;" x="49.8" y="39.87" width=".43" height="2.62"/>
        <path style="fill: #fff; stroke-width: 0px;" d="M52.45,42.5c-.18-.01-.33-.02-.46-.04v-.38c.31.03.58.05.81.05.14,0,.24,0,.32-.02.08-.01.14-.03.18-.06.04-.03.07-.06.08-.11.01-.05.02-.11.02-.2,0-.09,0-.16-.02-.21-.01-.04-.04-.07-.07-.09-.04-.02-.1-.03-.18-.04l-.62-.07c-.16-.02-.28-.06-.37-.12-.09-.06-.14-.14-.18-.24-.03-.1-.05-.22-.05-.38,0-.22.04-.38.12-.49.08-.11.18-.18.32-.22.13-.04.31-.05.53-.05.15,0,.3,0,.45.02.15.01.28.03.38.05v.37c-.09-.02-.21-.03-.35-.04-.14,0-.27-.01-.4-.01-.13,0-.24,0-.32.02-.08.01-.14.03-.18.05-.05.03-.07.06-.09.1s-.02.1-.02.18c0,.09,0,.16.02.2s.04.07.08.09c.04.02.1.03.19.04l.63.07c.13.01.24.04.32.08.08.04.14.11.18.2.05.1.07.26.07.46,0,.23-.04.4-.11.52s-.17.19-.3.22c-.12.03-.29.05-.49.05-.14,0-.3,0-.48-.02"/>
        <path style="fill: #fff; stroke-width: 0px;" d="M56.24,42.49l-.23-.63h-1.11l-.22.63h-.43l.94-2.62h.56l.94,2.62h-.44ZM55.46,40.3h-.02l-.42,1.17h.86l-.42-1.17ZM55.2,39.63v-.02l.37-.53h.42v.02l-.5.53h-.3Z"/>
        <polygon style="fill: #fff; stroke-width: 0px;" points="58.87 42.49 57.63 40.65 57.62 40.65 57.62 42.49 57.21 42.49 57.21 39.87 57.65 39.87 58.86 41.64 58.87 41.64 58.87 39.87 59.28 39.87 59.28 42.49 58.87 42.49"/>
        <path style="fill: #fff; stroke-width: 0px;" d="M61.05,41.4v-.37h.93v1.4c-.13.03-.28.05-.44.06-.16.02-.3.02-.42.02-.32,0-.56-.04-.72-.11-.16-.07-.27-.2-.33-.39-.06-.19-.09-.47-.09-.84s.03-.65.09-.84c.06-.19.17-.32.33-.39.16-.07.4-.11.72-.11.13,0,.27,0,.43.02.16.02.3.04.41.06v.36c-.29-.04-.51-.06-.66-.06-.29,0-.49.02-.6.05-.11.03-.19.11-.23.24-.04.13-.06.35-.06.67,0,.29.02.51.05.63.03.13.1.22.19.26.1.05.25.07.48.07.19,0,.33,0,.43-.02v-.72h-.51Z"/>
      </g>
    </g>
  </g>
</svg>