<?xml version="1.0" encoding="UTF-8"?>
<svg id="Layer_2" data-name="Layer 2" xmlns="http://www.w3.org/2000/svg" viewBox="0 0 7.36 7.42">
  <g id="OBJECTS">
    <path style="fill: #fff; stroke-width:0px;" d="M4,1.34c-.3,0-.55.25-.55.55,0,.31.25.55.55.55s.55-.25.55-.55c0-.31-.25-.55-.55-.55ZM3.41,6.07h.09s.04,0,.06,0c.43-.09.71-.37.91-.75.04-.07.04-.13-.03-.18-.07-.05-.12,0-.17.06-.08.07-.16.15-.26.19-.07.03-.17.02-.23-.01-.08-.04-.06-.14-.04-.22.06-.24.12-.49.19-.73.11-.44.23-.87.34-1.31.03-.13-.02-.18-.14-.17-.12,0-.24.03-.36.04-.27.03-.55.06-.82.1-.07,0-.12.05-.12.13,0,.07.06.11.15.1.05,0,.09,0,.14-.01.16-.02.22.05.18.2-.07.26-.14.52-.2.77-.09.36-.2.72-.27,1.09-.08.42.18.73.59.73h0ZM3.67,7.42C1.63,7.41,0,5.75,0,3.68,0,1.64,1.66,0,3.7,0c2.03,0,3.67,1.67,3.66,3.74,0,2.03-1.66,3.68-3.69,3.68Z"/>
  </g>
</svg>